<svg width="21" height="22" viewBox="0 0 21 22" fill="none" xmlns="http://www.w3.org/2000/svg">
<g id="icon / tabler-icons / adjustments" clip-path="url(#clip0_96_603)">
<path id="Vector" d="M10.6515 15.9869C10.6515 15.0608 9.8873 14.31 8.94464 14.31C8.00197 14.31 7.23779 15.0608 7.23779 15.9869C7.23779 16.913 8.00197 17.6638 8.94464 17.6638C9.8873 17.6638 10.6515 16.913 10.6515 15.9869Z" stroke="#21272A" stroke-width="1.47619" stroke-linecap="round" stroke-linejoin="round"/>
<path id="Vector_2" d="M3.82422 15.9868L7.23791 15.9868" stroke="#21272A" stroke-width="1.47619" stroke-linecap="round" stroke-linejoin="round"/>
<path id="Vector_3" d="M10.6519 15.9868L17.4792 15.9868" stroke="#21272A" stroke-width="1.47619" stroke-linecap="round" stroke-linejoin="round"/>
<path id="Vector_4" d="M15.7721 10.9562C15.7721 10.03 15.0079 9.27926 14.0652 9.27926C13.1226 9.27926 12.3584 10.03 12.3584 10.9562C12.3584 11.8823 13.1226 12.6331 14.0652 12.6331C15.0079 12.6331 15.7721 11.8823 15.7721 10.9562Z" stroke="#21272A" stroke-width="1.47619" stroke-linecap="round" stroke-linejoin="round"/>
<path id="Vector_5" d="M3.82422 10.9563L12.3584 10.9563" stroke="#21272A" stroke-width="1.47619" stroke-linecap="round" stroke-linejoin="round"/>
<path id="Vector_6" d="M15.7725 10.9563L17.4793 10.9563" stroke="#21272A" stroke-width="1.47619" stroke-linecap="round" stroke-linejoin="round"/>
<path id="Vector_7" d="M8.09142 5.92539C8.09142 4.99927 7.32724 4.24849 6.38458 4.24849C5.44191 4.24849 4.67773 4.99927 4.67773 5.92539C4.67773 6.85152 5.44191 7.60229 6.38458 7.60229C7.32724 7.60229 8.09142 6.85152 8.09142 5.92539Z" stroke="#21272A" stroke-width="1.47619" stroke-linecap="round" stroke-linejoin="round"/>
<path id="Vector_8" d="M3.82422 5.92554L4.67764 5.92554" stroke="#21272A" stroke-width="1.47619" stroke-linecap="round" stroke-linejoin="round"/>
<path id="Vector_9" d="M8.09131 5.92554L17.479 5.92554" stroke="#21272A" stroke-width="1.47619" stroke-linecap="round" stroke-linejoin="round"/>
</g>
<defs>
<clipPath id="clip0_96_603">
<rect width="20.1228" height="20.4821" fill="white" transform="translate(0.410645 21.0176) rotate(-90)"/>
</clipPath>
</defs>
</svg>
