<svg width="14" height="14" viewBox="0 0 14 14" fill="none" xmlns="http://www.w3.org/2000/svg">
<path id="icon" d="M12.7771 13.8684L7.92795 9.01447C7.54309 9.32266 7.10051 9.56664 6.60021 9.74642C6.0999 9.9262 5.56752 10.0161 5.00307 10.0161C3.60478 10.0161 2.42136 9.53133 1.45282 8.56182C0.484272 7.59232 0 6.40772 0 5.00804C0 3.60836 0.484272 2.42376 1.45282 1.45426C2.42136 0.484753 3.60478 0 5.00307 0C6.40137 0 7.58479 0.484753 8.55333 1.45426C9.52187 2.42376 10.0061 3.60836 10.0061 5.00804C10.0061 5.57305 9.91635 6.10596 9.73675 6.60676C9.55715 7.10757 9.31341 7.55059 9.00553 7.93582L13.8547 12.7898L12.7771 13.8684ZM5.00307 8.47515C5.9652 8.47515 6.78301 8.13807 7.4565 7.46391C8.12999 6.78975 8.46674 5.97113 8.46674 5.00804C8.46674 4.04496 8.12999 3.22633 7.4565 2.55217C6.78301 1.87802 5.9652 1.54094 5.00307 1.54094C4.04094 1.54094 3.22313 1.87802 2.54964 2.55217C1.87615 3.22633 1.53941 4.04496 1.53941 5.00804C1.53941 5.97113 1.87615 6.78975 2.54964 7.46391C3.22313 8.13807 4.04094 8.47515 5.00307 8.47515Z" fill="#0B1B3D"/>
</svg>
