<svg width="29" height="27" viewBox="0 0 29 27" fill="none" xmlns="http://www.w3.org/2000/svg">
<g id="calendar">
<path d="M26.1 10.5V7.5C26.1 7.10218 25.9472 6.72064 25.6753 6.43934C25.4034 6.15804 25.0346 6 24.65 6H23.2V7.5C23.2 7.89783 23.0472 8.27936 22.7753 8.56066C22.5034 8.84196 22.1346 9 21.75 9C21.3654 9 20.9966 8.84196 20.7247 8.56066C20.4528 8.27936 20.3 7.89783 20.3 7.5V6H8.7V7.5C8.7 7.89783 8.54723 8.27936 8.2753 8.56066C8.00338 8.84196 7.63456 9 7.25 9C6.86544 9 6.49662 8.84196 6.2247 8.56066C5.95277 8.27936 5.8 7.89783 5.8 7.5V6H4.35C3.96544 6 3.59662 6.15804 3.32469 6.43934C3.05277 6.72064 2.9 7.10218 2.9 7.5V10.5H26.1ZM26.1 13.5H2.9V22.5C2.9 22.8978 3.05277 23.2794 3.32469 23.5607C3.59662 23.842 3.96544 24 4.35 24H24.65C25.0346 24 25.4034 23.842 25.6753 23.5607C25.9472 23.2794 26.1 22.8978 26.1 22.5V13.5ZM23.2 3H24.65C25.8037 3 26.9101 3.47411 27.7259 4.31802C28.5417 5.16193 29 6.30653 29 7.5V22.5C29 23.6935 28.5417 24.8381 27.7259 25.682C26.9101 26.5259 25.8037 27 24.65 27H4.35C3.19631 27 2.08987 26.5259 1.27409 25.682C0.458302 24.8381 0 23.6935 0 22.5V7.5C0 6.30653 0.458302 5.16193 1.27409 4.31802C2.08987 3.47411 3.19631 3 4.35 3H5.8V1.5C5.8 1.10218 5.95277 0.720644 6.2247 0.43934C6.49662 0.158035 6.86544 0 7.25 0C7.63456 0 8.00338 0.158035 8.2753 0.43934C8.54723 0.720644 8.7 1.10218 8.7 1.5V3H20.3V1.5C20.3 1.10218 20.4528 0.720644 20.7247 0.43934C20.9966 0.158035 21.3654 0 21.75 0C22.1346 0 22.5034 0.158035 22.7753 0.43934C23.0472 0.720644 23.2 1.10218 23.2 1.5V3Z" fill="#0B1B3D"/>
<path d="M5.57692 16.3125C5.57692 16.0018 5.82661 15.75 6.13461 15.75H8.36538C8.67339 15.75 8.92308 16.0018 8.92308 16.3125V18.5625C8.92308 18.8732 8.67339 19.125 8.36538 19.125H6.13461C5.82661 19.125 5.57692 18.8732 5.57692 18.5625V16.3125Z" fill="#0B1B3D"/>
<path d="M21.1923 16.3125C21.1923 16.0018 21.442 15.75 21.75 15.75H23.9808C24.2888 15.75 24.5385 16.0018 24.5385 16.3125V18.5625C24.5385 18.8732 24.2888 19.125 23.9808 19.125H21.75C21.442 19.125 21.1923 18.8732 21.1923 18.5625V16.3125Z" fill="#0B1B3D"/>
<path d="M13.3846 16.3125C13.3846 16.0018 13.6343 15.75 13.9423 15.75H16.1731C16.4811 15.75 16.7308 16.0018 16.7308 16.3125V18.5625C16.7308 18.8732 16.4811 19.125 16.1731 19.125H13.9423C13.6343 19.125 13.3846 18.8732 13.3846 18.5625V16.3125Z" fill="#0B1B3D"/>
</g>
</svg>
