<svg width="29" height="29" viewBox="0 0 29 29" fill="none" xmlns="http://www.w3.org/2000/svg">
<path id="adicionar colab" d="M6.01687 16.8284L6.01681 16.8282L6.00386 16.8333C4.94121 17.252 4.02917 17.9808 3.38642 18.925C2.74367 19.8691 2.39995 20.9849 2.4 22.127V24.65C2.4 25.1672 2.60545 25.6632 2.97114 26.0289C3.33684 26.3946 3.83283 26.6 4.35 26.6H15.95C16.4672 26.6 16.9632 26.3946 17.3289 26.0289C17.6946 25.6632 17.9 25.1672 17.9 24.65L17.9 22.2619C17.9 22.2619 17.9 22.2619 17.9 22.2619C17.9002 21.0853 17.5428 19.9365 16.8752 18.9677C16.2076 17.9989 15.2613 17.2558 14.1618 16.837L14.1548 16.8344L14.1477 16.8319C14.0276 16.7902 13.917 16.7249 13.8226 16.6397C13.7282 16.5544 13.6519 16.4512 13.5982 16.3359C13.5444 16.2207 13.5144 16.0958 13.5098 15.9687C13.5052 15.8416 13.5262 15.7149 13.5715 15.5961C13.6168 15.4773 13.6854 15.3687 13.7735 15.2769C13.8615 15.1852 13.967 15.112 14.0838 15.0617C14.2007 15.0115 14.3264 14.9852 14.4535 14.9845C14.5807 14.9837 14.7067 15.0085 14.8241 15.0573L14.8311 15.0603L14.8382 15.063C16.2973 15.6187 17.5532 16.6048 18.4393 17.8904C19.3253 19.176 19.7999 20.7005 19.8 22.2619C19.8 22.2619 19.8 22.2619 19.8 22.2619V24.65C19.8 25.6711 19.3944 26.6503 18.6724 27.3724C17.9503 28.0944 16.9711 28.5 15.95 28.5H4.35C3.32892 28.5 2.34965 28.0944 1.62764 27.3724C0.905624 26.6503 0.5 25.6711 0.5 24.65V22.1271C0.5 22.127 0.5 22.127 0.5 22.127C0.500199 20.6036 0.958835 19.1155 1.81625 17.8563C2.67367 16.5971 3.8902 15.6251 5.30758 15.0667L5.1243 14.6015L5.32052 15.0614C5.43732 15.0116 5.56293 14.9856 5.68991 14.9852C5.8169 14.9847 5.94268 15.0097 6.05984 15.0587C6.17699 15.1077 6.28314 15.1797 6.372 15.2704C6.46086 15.3611 6.53063 15.4687 6.57719 15.5869C6.62375 15.705 6.64615 15.8313 6.64307 15.9582C6.63998 16.0852 6.61148 16.2102 6.55925 16.326C6.50701 16.4417 6.4321 16.5458 6.33894 16.6321C6.24578 16.7184 6.13627 16.7851 6.01687 16.8284ZM6.40233 2.05233C7.39628 1.05839 8.74435 0.5 10.15 0.5C11.5556 0.5 12.9037 1.05839 13.8977 2.05233C14.8916 3.04628 15.45 4.39435 15.45 5.8V8.7C15.45 10.1056 14.8916 11.4537 13.8977 12.4477C12.9037 13.4416 11.5556 14 10.15 14C8.74435 14 7.39628 13.4416 6.40233 12.4477C5.40839 11.4537 4.85 10.1056 4.85 8.7V5.8C4.85 4.39435 5.40839 3.04628 6.40233 2.05233ZM24.15 7.25V7.75H24.65H27.55C27.802 7.75 28.0436 7.85009 28.2218 8.02825C28.3999 8.20641 28.5 8.44804 28.5 8.7C28.5 8.95196 28.3999 9.19359 28.2218 9.37175C28.0436 9.54991 27.802 9.65 27.55 9.65H24.65H24.15V10.15V13.05C24.15 13.302 24.0499 13.5436 23.8718 13.7218C23.6936 13.8999 23.452 14 23.2 14C22.948 14 22.7064 13.8999 22.5282 13.7218C22.3501 13.5436 22.25 13.302 22.25 13.05V10.15V9.65H21.75H18.85C18.598 9.65 18.3564 9.54991 18.1782 9.37175C18.0001 9.19359 17.9 8.95196 17.9 8.7C17.9 8.44804 18.0001 8.20641 18.1782 8.02825C18.3564 7.85009 18.598 7.75 18.85 7.75H21.75H22.25V7.25V4.35C22.25 4.09804 22.3501 3.85641 22.5282 3.67825C22.7064 3.50009 22.948 3.4 23.2 3.4C23.452 3.4 23.6936 3.50009 23.8718 3.67825C24.0499 3.85641 24.15 4.09804 24.15 4.35V7.25ZM10.15 2.4C9.24826 2.4 8.38346 2.75821 7.74584 3.39584C7.10821 4.03346 6.75 4.89826 6.75 5.8V8.7C6.75 9.60174 7.10821 10.4665 7.74584 11.1042C8.38346 11.7418 9.24826 12.1 10.15 12.1C11.0517 12.1 11.9165 11.7418 12.5542 11.1042C13.1918 10.4665 13.55 9.60174 13.55 8.7V5.8C13.55 4.89826 13.1918 4.03346 12.5542 3.39584C11.9165 2.75821 11.0517 2.4 10.15 2.4Z" fill="#005A7F" stroke="#005A7F"/>
</svg>
