<svg width="16" height="20" viewBox="0 0 16 20" fill="none" xmlns="http://www.w3.org/2000/svg">
<g id="Component 11">
<path id="Vector" d="M6.5455 4.0605C6.5455 3.61043 6.72429 3.1788 7.04253 2.86056C7.36077 2.54231 7.7924 2.36353 8.24247 2.36353C8.69253 2.36353 9.12416 2.54231 9.44241 2.86056C9.76065 3.1788 9.93944 3.61043 9.93944 4.0605C10.9138 4.52125 11.7445 5.23847 12.3424 6.13529C12.9403 7.03212 13.2828 8.07474 13.3334 9.1514V11.6969C13.3972 12.2244 13.584 12.7295 13.8788 13.1716C14.1735 13.6137 14.568 13.9805 15.0303 14.2423H1.45459C1.91696 13.9805 2.3114 13.6137 2.60614 13.1716C2.90089 12.7295 3.08771 12.2244 3.15156 11.6969V9.1514C3.2021 8.07474 3.54466 7.03212 4.14255 6.13529C4.74043 5.23847 5.57109 4.52125 6.5455 4.0605" stroke="#005A7F" stroke-width="1.81818" stroke-linecap="round" stroke-linejoin="round"/>
<path id="Vector_2" d="M5.69678 14.2424V15.0909C5.69678 15.766 5.96496 16.4135 6.44232 16.8908C6.91969 17.3682 7.56714 17.6364 8.24223 17.6364C8.91733 17.6364 9.56477 17.3682 10.0421 16.8908C10.5195 16.4135 10.7877 15.766 10.7877 15.0909V14.2424" stroke="#005A7F" stroke-width="1.81818" stroke-linecap="round" stroke-linejoin="round"/>
</g>
</svg>
