<svg width="151" height="46" viewBox="0 0 151 46" fill="none" xmlns="http://www.w3.org/2000/svg">
<g id="Component 12">
<g id="Vector">
<path d="M20.7104 11.7164C21.1995 11.7164 21.5974 11.7164 21.9953 11.7164C24.3768 11.7048 26.7564 11.6912 29.138 11.6834C30.0754 11.6815 30.5529 12.0127 30.6325 12.9387C30.7392 14.1706 30.7392 15.4142 30.7353 16.654C30.7276 19.1121 30.5801 21.5722 29.5727 23.8482C27.4047 28.7548 23.5811 31.5733 18.3037 32.4605C18.1154 32.4915 17.9271 32.5186 17.6962 32.5554V37.1869C18.7423 37.1869 19.7885 37.1811 20.8346 37.1889C21.5605 37.1947 21.9817 37.6382 21.9604 38.3414C21.939 38.9787 21.547 39.3777 20.8929 39.3855C19.8448 39.3971 18.7967 39.3894 17.6903 39.3894C17.6748 39.6102 17.6515 39.7942 17.6515 39.9763C17.6476 41.3051 17.6515 42.634 17.6476 43.9628C17.6476 44.387 17.5273 44.7628 17.1061 44.9604C16.6791 45.1599 16.2521 45.1483 15.8561 44.8868C15.435 44.6078 15.4117 44.1565 15.4097 43.7168C15.402 42.4925 15.4078 41.2683 15.4078 40.0441C15.4078 39.8523 15.4078 39.6625 15.4078 39.3874C14.9284 39.3874 14.48 39.3874 14.0336 39.3874C13.2805 39.3874 12.5274 39.3874 11.7744 39.3874C10.9068 39.3855 10.4875 38.9864 10.4701 38.1128C10.4468 36.8712 10.4448 35.6314 10.4312 34.3898C10.4215 33.4987 10.4079 32.6077 10.3944 31.7166C10.3905 31.4667 10.373 31.2634 10.0392 31.1781C5.57502 30.0546 2.74319 27.1413 1.30884 22.8971C-0.46323 17.6709 -0.17209 12.5261 2.76843 7.77056C5.44691 3.43734 9.52676 1.25038 14.5887 0.928829C15.8367 0.849409 17.108 0.957885 18.358 1.09154C19.7458 1.2407 20.5357 2.09882 20.6328 3.54194C20.7201 4.86496 20.6988 6.19572 20.7104 7.52262C20.7221 8.91537 20.7124 10.3081 20.7124 11.7183L20.7104 11.7164ZM28.4761 13.9227C28.185 13.9227 27.9773 13.9227 27.7696 13.9227C25.1416 13.9343 22.5135 13.9479 19.8855 13.9556C18.9772 13.9595 18.5482 13.5508 18.5405 12.6636C18.5191 10.3391 18.5036 8.01269 18.4861 5.68821C18.4822 5.09547 18.4686 4.50272 18.4706 3.90998C18.4725 3.48964 18.3056 3.25719 17.8572 3.24944C16.6345 3.22619 15.4 3.05961 14.1947 3.18552C9.92853 3.6291 6.54548 5.59911 4.36193 9.34346C2.5064 12.5241 2.11627 15.9915 2.7102 19.5828C3.11973 22.0584 4.02615 24.3248 5.74388 26.2095C6.98608 27.5732 8.4903 28.5108 10.2371 28.9485C10.2371 26.9398 10.2585 24.9485 10.2313 22.9591C10.2003 20.7238 10.1013 18.4864 10.078 16.2511C10.0605 14.4205 10.8757 13.2157 12.3838 12.8767C13.001 12.7372 13.6842 12.6888 14.3053 12.7895C16.8615 13.206 18.9151 14.5116 20.4212 16.5978C21.8265 18.5445 22.0225 20.6811 20.9744 22.8429C20.5222 23.7766 19.9205 24.6599 19.2605 25.4638C17.4982 27.61 15.2506 29.2023 12.9564 30.7229C12.6866 30.9011 12.5818 31.0793 12.5896 31.3931C12.6225 32.966 12.6381 34.5389 12.6575 36.1118C12.6614 36.4547 12.6575 36.7995 12.6575 37.1482H15.433C15.433 36.9215 15.433 36.7317 15.433 36.5419C15.4505 34.8818 15.466 33.2198 15.4874 31.5597C15.4971 30.7907 15.9318 30.38 16.6888 30.3374C17.3856 30.2987 18.0979 30.2774 18.7714 30.1166C23.3384 29.0222 26.5526 26.3858 27.9268 21.8085C28.6915 19.2632 28.5304 16.623 28.4722 13.9208L28.4761 13.9227ZM12.4944 28.3442C12.7138 28.2144 12.8225 28.166 12.9137 28.0943C13.9851 27.2497 15.0837 26.4381 16.1123 25.5451C17.3099 24.5088 18.3444 23.3233 18.9985 21.855C19.4585 20.8245 19.6526 19.7339 19.1189 18.7131C18.0145 16.5959 16.2055 15.3484 13.8667 14.9435C12.7215 14.7459 12.2596 15.2554 12.2868 16.4118C12.3586 19.4162 12.4304 22.4187 12.4906 25.4231C12.51 26.3606 12.4944 27.2982 12.4944 28.3422V28.3442Z" fill="#0B1B3D"/>
<path d="M29.0409 8.78171C29.0331 9.40351 28.6915 9.83548 28.1966 9.94783C27.6881 10.0621 27.1893 9.82192 26.9466 9.31828C26.3566 8.09793 25.6695 6.94343 24.5884 6.08918C24.0294 5.64753 23.4161 5.2698 22.8105 4.89401C22.1952 4.51241 21.9798 3.8848 22.302 3.29593C22.5892 2.77292 23.2239 2.61602 23.8586 2.93951C26.1955 4.12499 27.8531 5.95359 28.9186 8.32844C28.9963 8.4989 29.0176 8.69454 29.0409 8.78365V8.78171Z" fill="#0B1B3D"/>
<path d="M60.6141 34.32C58.4808 34.32 56.5608 33.8613 54.8541 32.944C53.1688 32.0053 51.8355 30.672 50.8541 28.944C49.8941 27.1947 49.4141 25.1573 49.4141 22.832C49.4141 20.5067 49.8941 18.48 50.8541 16.752C51.8355 15.0027 53.1688 13.6693 54.8541 12.752C56.5608 11.8133 58.4808 11.344 60.6141 11.344C62.0648 11.344 63.3555 11.5147 64.4861 11.856C65.6381 12.1973 66.7795 12.688 67.9101 13.328C68.3795 13.584 68.6141 13.9893 68.6141 14.544C68.6141 14.864 68.4968 15.152 68.2621 15.408C68.0275 15.6427 67.7181 15.76 67.3341 15.76C67.1208 15.76 66.9288 15.7173 66.7581 15.632C65.8195 15.1413 64.9021 14.768 64.0061 14.512C63.1101 14.256 62.0755 14.128 60.9021 14.128C59.0675 14.128 57.4995 14.512 56.1981 15.28C54.9181 16.0267 53.9475 17.0613 53.2861 18.384C52.6461 19.6853 52.3261 21.168 52.3261 22.832C52.3261 24.496 52.6461 25.9893 53.2861 27.312C53.9475 28.6133 54.9181 29.648 56.1981 30.416C57.4995 31.1627 59.0675 31.536 60.9021 31.536C62.0755 31.536 63.1101 31.408 64.0061 31.152C64.9021 30.896 65.8195 30.5227 66.7581 30.032C66.9288 29.9467 67.1208 29.904 67.3341 29.904C67.7181 29.904 68.0275 30.0213 68.2621 30.256C68.4968 30.4907 68.6141 30.7787 68.6141 31.12C68.6141 31.6747 68.3795 32.08 67.9101 32.336C66.7795 32.976 65.6381 33.4667 64.4861 33.808C63.3555 34.1493 62.0648 34.32 60.6141 34.32Z" fill="#0B1B3D"/>
<path d="M73.3046 34.16C72.8779 34.16 72.5259 34.0213 72.2486 33.744C71.9926 33.4667 71.8646 33.1253 71.8646 32.72C71.8646 32.5493 71.9179 32.336 72.0246 32.08L80.1846 12.816C80.3552 12.432 80.5899 12.1227 80.8886 11.888C81.2086 11.632 81.5926 11.504 82.0406 11.504H82.3606C82.8086 11.504 83.1819 11.632 83.4806 11.888C83.8006 12.1227 84.0459 12.432 84.2166 12.816L92.3766 32.08C92.4832 32.336 92.5366 32.5493 92.5366 32.72C92.5366 33.1253 92.3979 33.4667 92.1206 33.744C91.8646 34.0213 91.5232 34.16 91.0966 34.16C90.7979 34.16 90.5206 34.0853 90.2646 33.936C90.0299 33.7653 89.8486 33.5413 89.7206 33.264L87.6406 28.272H76.7606L74.6806 33.264C74.5526 33.5413 74.3606 33.7653 74.1046 33.936C73.8699 34.0853 73.6032 34.16 73.3046 34.16ZM77.8806 25.616H86.5206L82.2006 15.216L77.8806 25.616Z" fill="#0B1B3D"/>
<path d="M99.044 34.16C98.6387 34.16 98.2973 34.0213 98.02 33.744C97.7427 33.4667 97.604 33.1253 97.604 32.72V13.136C97.604 12.7307 97.7427 12.3893 98.02 12.112C98.2973 11.8133 98.6387 11.664 99.044 11.664H106.34C108.367 11.664 110.02 12.0053 111.3 12.688C112.58 13.3707 113.497 14.2453 114.052 15.312C114.607 16.3787 114.884 17.5307 114.884 18.768C114.884 20.0053 114.607 21.1573 114.052 22.224C113.497 23.2907 112.58 24.1653 111.3 24.848C110.02 25.5307 108.367 25.872 106.34 25.872H100.516V32.72C100.516 33.1253 100.367 33.4667 100.068 33.744C99.7907 34.0213 99.4493 34.16 99.044 34.16ZM106.052 23.12C108.228 23.12 109.753 22.704 110.628 21.872C111.524 21.04 111.972 20.0053 111.972 18.768C111.972 17.5307 111.524 16.496 110.628 15.664C109.753 14.832 108.228 14.416 106.052 14.416H100.516V23.12H106.052Z" fill="#0B1B3D"/>
<path d="M120.904 34.16C120.499 34.16 120.158 34.0213 119.88 33.744C119.603 33.4667 119.464 33.1253 119.464 32.72V12.976C119.464 12.5707 119.603 12.2293 119.88 11.952C120.158 11.6533 120.499 11.504 120.904 11.504C121.31 11.504 121.651 11.6533 121.928 11.952C122.227 12.2293 122.376 12.5707 122.376 12.976V32.72C122.376 33.1253 122.227 33.4667 121.928 33.744C121.651 34.0213 121.31 34.16 120.904 34.16Z" fill="#0B1B3D"/>
<path d="M135.574 34.16C135.169 34.16 134.827 34.0213 134.55 33.744C134.273 33.4667 134.134 33.1253 134.134 32.72V14.384H127.606C127.222 14.384 126.902 14.256 126.646 14C126.39 13.744 126.262 13.424 126.262 13.04C126.262 12.656 126.39 12.336 126.646 12.08C126.902 11.8027 127.222 11.664 127.606 11.664H143.542C143.926 11.664 144.246 11.8027 144.502 12.08C144.779 12.336 144.918 12.656 144.918 13.04C144.918 13.424 144.779 13.744 144.502 14C144.246 14.256 143.926 14.384 143.542 14.384H137.046V32.72C137.046 33.1253 136.897 33.4667 136.598 33.744C136.321 34.0213 135.979 34.16 135.574 34.16Z" fill="#0B1B3D"/>
<path d="M20.7104 11.7164C21.1995 11.7164 21.5974 11.7164 21.9953 11.7164C24.3768 11.7048 26.7564 11.6912 29.138 11.6834C30.0754 11.6815 30.5529 12.0127 30.6325 12.9387C30.7392 14.1706 30.7392 15.4142 30.7353 16.654C30.7276 19.1121 30.5801 21.5722 29.5727 23.8482C27.4047 28.7548 23.5811 31.5733 18.3037 32.4605C18.1154 32.4915 17.9271 32.5186 17.6962 32.5554V37.1869C18.7423 37.1869 19.7885 37.1811 20.8346 37.1889C21.5605 37.1947 21.9817 37.6382 21.9604 38.3414C21.939 38.9787 21.547 39.3777 20.8929 39.3855C19.8448 39.3971 18.7967 39.3894 17.6903 39.3894C17.6748 39.6102 17.6515 39.7942 17.6515 39.9763C17.6476 41.3051 17.6515 42.634 17.6476 43.9628C17.6476 44.387 17.5273 44.7628 17.1061 44.9604C16.6791 45.1599 16.2521 45.1483 15.8561 44.8868C15.435 44.6078 15.4117 44.1565 15.4097 43.7168C15.402 42.4925 15.4078 41.2683 15.4078 40.0441C15.4078 39.8523 15.4078 39.6625 15.4078 39.3874C14.9284 39.3874 14.48 39.3874 14.0336 39.3874C13.2805 39.3874 12.5274 39.3874 11.7744 39.3874C10.9068 39.3855 10.4875 38.9864 10.4701 38.1128C10.4468 36.8712 10.4448 35.6314 10.4312 34.3898C10.4215 33.4987 10.4079 32.6077 10.3944 31.7166C10.3905 31.4667 10.373 31.2634 10.0392 31.1781C5.57502 30.0546 2.74319 27.1413 1.30884 22.8971C-0.46323 17.6709 -0.17209 12.5261 2.76843 7.77056C5.44691 3.43734 9.52676 1.25038 14.5887 0.928829C15.8367 0.849409 17.108 0.957885 18.358 1.09154C19.7458 1.2407 20.5357 2.09882 20.6328 3.54194C20.7201 4.86496 20.6988 6.19572 20.7104 7.52262C20.7221 8.91537 20.7124 10.3081 20.7124 11.7183L20.7104 11.7164ZM28.4761 13.9227C28.185 13.9227 27.9773 13.9227 27.7696 13.9227C25.1416 13.9343 22.5135 13.9479 19.8855 13.9556C18.9772 13.9595 18.5482 13.5508 18.5405 12.6636C18.5191 10.3391 18.5036 8.01269 18.4861 5.68821C18.4822 5.09547 18.4686 4.50272 18.4706 3.90998C18.4725 3.48964 18.3056 3.25719 17.8572 3.24944C16.6345 3.22619 15.4 3.05961 14.1947 3.18552C9.92853 3.6291 6.54548 5.59911 4.36193 9.34346C2.5064 12.5241 2.11627 15.9915 2.7102 19.5828C3.11973 22.0584 4.02615 24.3248 5.74388 26.2095C6.98608 27.5732 8.4903 28.5108 10.2371 28.9485C10.2371 26.9398 10.2585 24.9485 10.2313 22.9591C10.2003 20.7238 10.1013 18.4864 10.078 16.2511C10.0605 14.4205 10.8757 13.2157 12.3838 12.8767C13.001 12.7372 13.6842 12.6888 14.3053 12.7895C16.8615 13.206 18.9151 14.5116 20.4212 16.5978C21.8265 18.5445 22.0225 20.6811 20.9744 22.8429C20.5222 23.7766 19.9205 24.6599 19.2605 25.4638C17.4982 27.61 15.2506 29.2023 12.9564 30.7229C12.6866 30.9011 12.5818 31.0793 12.5896 31.3931C12.6225 32.966 12.6381 34.5389 12.6575 36.1118C12.6614 36.4547 12.6575 36.7995 12.6575 37.1482H15.433C15.433 36.9215 15.433 36.7317 15.433 36.5419C15.4505 34.8818 15.466 33.2198 15.4874 31.5597C15.4971 30.7907 15.9318 30.38 16.6888 30.3374C17.3856 30.2987 18.0979 30.2774 18.7714 30.1166C23.3384 29.0222 26.5526 26.3858 27.9268 21.8085C28.6915 19.2632 28.5304 16.623 28.4722 13.9208L28.4761 13.9227ZM12.4944 28.3442C12.7138 28.2144 12.8225 28.166 12.9137 28.0943C13.9851 27.2497 15.0837 26.4381 16.1123 25.5451C17.3099 24.5088 18.3444 23.3233 18.9985 21.855C19.4585 20.8245 19.6526 19.7339 19.1189 18.7131C18.0145 16.5959 16.2055 15.3484 13.8667 14.9435C12.7215 14.7459 12.2596 15.2554 12.2868 16.4118C12.3586 19.4162 12.4304 22.4187 12.4906 25.4231C12.51 26.3606 12.4944 27.2982 12.4944 28.3422V28.3442Z" stroke="#0B1B3D" stroke-width="0.75"/>
<path d="M29.0409 8.78171C29.0331 9.40351 28.6915 9.83548 28.1966 9.94783C27.6881 10.0621 27.1893 9.82192 26.9466 9.31828C26.3566 8.09793 25.6695 6.94343 24.5884 6.08918C24.0294 5.64753 23.4161 5.2698 22.8105 4.89401C22.1952 4.51241 21.9798 3.8848 22.302 3.29593C22.5892 2.77292 23.2239 2.61602 23.8586 2.93951C26.1955 4.12499 27.8531 5.95359 28.9186 8.32844C28.9963 8.4989 29.0176 8.69454 29.0409 8.78365V8.78171Z" stroke="#0B1B3D" stroke-width="0.75"/>
<path d="M60.6141 34.32C58.4808 34.32 56.5608 33.8613 54.8541 32.944C53.1688 32.0053 51.8355 30.672 50.8541 28.944C49.8941 27.1947 49.4141 25.1573 49.4141 22.832C49.4141 20.5067 49.8941 18.48 50.8541 16.752C51.8355 15.0027 53.1688 13.6693 54.8541 12.752C56.5608 11.8133 58.4808 11.344 60.6141 11.344C62.0648 11.344 63.3555 11.5147 64.4861 11.856C65.6381 12.1973 66.7795 12.688 67.9101 13.328C68.3795 13.584 68.6141 13.9893 68.6141 14.544C68.6141 14.864 68.4968 15.152 68.2621 15.408C68.0275 15.6427 67.7181 15.76 67.3341 15.76C67.1208 15.76 66.9288 15.7173 66.7581 15.632C65.8195 15.1413 64.9021 14.768 64.0061 14.512C63.1101 14.256 62.0755 14.128 60.9021 14.128C59.0675 14.128 57.4995 14.512 56.1981 15.28C54.9181 16.0267 53.9475 17.0613 53.2861 18.384C52.6461 19.6853 52.3261 21.168 52.3261 22.832C52.3261 24.496 52.6461 25.9893 53.2861 27.312C53.9475 28.6133 54.9181 29.648 56.1981 30.416C57.4995 31.1627 59.0675 31.536 60.9021 31.536C62.0755 31.536 63.1101 31.408 64.0061 31.152C64.9021 30.896 65.8195 30.5227 66.7581 30.032C66.9288 29.9467 67.1208 29.904 67.3341 29.904C67.7181 29.904 68.0275 30.0213 68.2621 30.256C68.4968 30.4907 68.6141 30.7787 68.6141 31.12C68.6141 31.6747 68.3795 32.08 67.9101 32.336C66.7795 32.976 65.6381 33.4667 64.4861 33.808C63.3555 34.1493 62.0648 34.32 60.6141 34.32Z" stroke="#0B1B3D" stroke-width="0.75"/>
<path d="M73.3046 34.16C72.8779 34.16 72.5259 34.0213 72.2486 33.744C71.9926 33.4667 71.8646 33.1253 71.8646 32.72C71.8646 32.5493 71.9179 32.336 72.0246 32.08L80.1846 12.816C80.3552 12.432 80.5899 12.1227 80.8886 11.888C81.2086 11.632 81.5926 11.504 82.0406 11.504H82.3606C82.8086 11.504 83.1819 11.632 83.4806 11.888C83.8006 12.1227 84.0459 12.432 84.2166 12.816L92.3766 32.08C92.4832 32.336 92.5366 32.5493 92.5366 32.72C92.5366 33.1253 92.3979 33.4667 92.1206 33.744C91.8646 34.0213 91.5232 34.16 91.0966 34.16C90.7979 34.16 90.5206 34.0853 90.2646 33.936C90.0299 33.7653 89.8486 33.5413 89.7206 33.264L87.6406 28.272H76.7606L74.6806 33.264C74.5526 33.5413 74.3606 33.7653 74.1046 33.936C73.8699 34.0853 73.6032 34.16 73.3046 34.16ZM77.8806 25.616H86.5206L82.2006 15.216L77.8806 25.616Z" stroke="#0B1B3D" stroke-width="0.75"/>
<path d="M99.044 34.16C98.6387 34.16 98.2973 34.0213 98.02 33.744C97.7427 33.4667 97.604 33.1253 97.604 32.72V13.136C97.604 12.7307 97.7427 12.3893 98.02 12.112C98.2973 11.8133 98.6387 11.664 99.044 11.664H106.34C108.367 11.664 110.02 12.0053 111.3 12.688C112.58 13.3707 113.497 14.2453 114.052 15.312C114.607 16.3787 114.884 17.5307 114.884 18.768C114.884 20.0053 114.607 21.1573 114.052 22.224C113.497 23.2907 112.58 24.1653 111.3 24.848C110.02 25.5307 108.367 25.872 106.34 25.872H100.516V32.72C100.516 33.1253 100.367 33.4667 100.068 33.744C99.7907 34.0213 99.4493 34.16 99.044 34.16ZM106.052 23.12C108.228 23.12 109.753 22.704 110.628 21.872C111.524 21.04 111.972 20.0053 111.972 18.768C111.972 17.5307 111.524 16.496 110.628 15.664C109.753 14.832 108.228 14.416 106.052 14.416H100.516V23.12H106.052Z" stroke="#0B1B3D" stroke-width="0.75"/>
<path d="M120.904 34.16C120.499 34.16 120.158 34.0213 119.88 33.744C119.603 33.4667 119.464 33.1253 119.464 32.72V12.976C119.464 12.5707 119.603 12.2293 119.88 11.952C120.158 11.6533 120.499 11.504 120.904 11.504C121.31 11.504 121.651 11.6533 121.928 11.952C122.227 12.2293 122.376 12.5707 122.376 12.976V32.72C122.376 33.1253 122.227 33.4667 121.928 33.744C121.651 34.0213 121.31 34.16 120.904 34.16Z" stroke="#0B1B3D" stroke-width="0.75"/>
<path d="M135.574 34.16C135.169 34.16 134.827 34.0213 134.55 33.744C134.273 33.4667 134.134 33.1253 134.134 32.72V14.384H127.606C127.222 14.384 126.902 14.256 126.646 14C126.39 13.744 126.262 13.424 126.262 13.04C126.262 12.656 126.39 12.336 126.646 12.08C126.902 11.8027 127.222 11.664 127.606 11.664H143.542C143.926 11.664 144.246 11.8027 144.502 12.08C144.779 12.336 144.918 12.656 144.918 13.04C144.918 13.424 144.779 13.744 144.502 14C144.246 14.256 143.926 14.384 143.542 14.384H137.046V32.72C137.046 33.1253 136.897 33.4667 136.598 33.744C136.321 34.0213 135.979 34.16 135.574 34.16Z" stroke="#0B1B3D" stroke-width="0.75"/>
</g>
</g>
</svg>
