<svg width="22" height="23" viewBox="0 0 22 23" fill="none" xmlns="http://www.w3.org/2000/svg">
<path id="Vector" d="M6.71999 16.1854L8.48099 15.6521L19.084 4.38623C19.1676 4.29625 19.2142 4.17533 19.2136 4.04961C19.213 3.92388 19.1654 3.80343 19.081 3.71427L18.446 3.04021C18.4049 2.99594 18.3559 2.9607 18.3018 2.93654C18.2476 2.91237 18.1894 2.89978 18.1306 2.89949C18.0718 2.89919 18.0135 2.91121 17.9591 2.93483C17.9047 2.95845 17.8554 2.9932 17.814 3.03706L7.23899 14.2735L6.71899 16.1844L6.71999 16.1854ZM19.703 1.70469L20.338 2.3798C21.214 3.31109 21.222 4.81356 20.354 5.7354L9.42799 17.3456L5.66399 18.4838C5.43419 18.5513 5.18825 18.5203 4.98016 18.3977C4.77206 18.2751 4.61879 18.0708 4.55399 17.8296C4.50578 17.6563 4.50508 17.4721 4.55199 17.2984L5.64699 13.2666L16.544 1.68684C16.7512 1.46778 16.9979 1.29423 17.2696 1.17631C17.5414 1.05839 17.8328 0.998466 18.1268 1.00003C18.4209 1.00159 18.7117 1.06461 18.9823 1.18542C19.2529 1.30622 19.4979 1.48238 19.703 1.70364V1.70469ZM8.18399 2.91527C8.67999 2.91527 9.08199 3.34259 9.08199 3.86966C9.08278 3.99426 9.06017 4.11779 9.01546 4.23321C8.97074 4.34862 8.9048 4.45365 8.8214 4.54229C8.738 4.63092 8.63878 4.70143 8.52941 4.74978C8.42003 4.79813 8.30266 4.82337 8.18399 4.82406H4.59199C3.6 4.82406 2.796 5.67871 2.796 6.73179V18.1824C2.796 19.2366 3.6 20.0912 4.59199 20.0912H15.368C16.36 20.0912 17.165 19.2366 17.165 18.1824V14.3659C17.165 13.8388 17.567 13.4115 18.063 13.4115C18.559 13.4115 18.961 13.8388 18.961 14.3669V18.1824C18.961 20.2907 17.352 22 15.368 22H4.59199C2.608 22 1 20.2907 1 18.1824V6.73179C1 4.62457 2.608 2.91527 4.59199 2.91527H8.18399Z" fill="#F2F2F2" stroke="#F2F2F2" stroke-width="0.5"/>
</svg>
