<svg width="19" height="17" viewBox="0 0 19 17" fill="none" xmlns="http://www.w3.org/2000/svg">
<g id="Group 239208">
<path id="Vector" d="M8.93333 6.1C8.93333 4.7474 8.37611 3.45019 7.38425 2.49376C6.39239 1.53732 5.04714 1 3.64444 1H1V2.7C1 4.0526 1.55722 5.34981 2.54908 6.30624C3.54094 7.26268 4.88619 7.8 6.28889 7.8H8.93333" stroke="#0B1B3D" stroke-width="1.5" stroke-linecap="round" stroke-linejoin="round"/>
<path id="Vector_2" d="M8.93335 10.2286C8.93335 8.68276 9.57017 7.20024 10.7037 6.10717C11.8373 5.0141 13.3747 4.40002 14.9778 4.40002H18V5.37145C18 6.91729 17.3632 8.39981 16.2296 9.49288C15.0961 10.5859 13.5587 11.2 11.9556 11.2H8.93335" stroke="#0B1B3D" stroke-width="1.5" stroke-linecap="round" stroke-linejoin="round"/>
<path id="Vector_3" d="M8.93335 15.7334V6.66669" stroke="#0B1B3D" stroke-width="1.5" stroke-linecap="round" stroke-linejoin="round"/>
</g>
</svg>
