<svg width="40" height="57" viewBox="0 0 40 57" fill="none" xmlns="http://www.w3.org/2000/svg">
<path id="Vector" d="M10.0971 28.6995C10.4484 28.55 10.8262 28.4723 11.2081 28.4709C11.59 28.4695 11.9683 28.5445 12.3206 28.6915C12.673 28.8384 12.9922 29.0544 13.2595 29.3265C13.5267 29.5987 13.7366 29.9215 13.8766 30.2759C14.0166 30.6304 14.084 31.0092 14.0747 31.39C14.0654 31.7709 13.9797 32.146 13.8226 32.4932C13.6655 32.8405 13.4402 33.1528 13.16 33.4116C12.8799 33.6705 12.5505 33.8708 12.1914 34.0005C10.2815 34.7511 8.64236 36.0578 7.48716 37.7504C6.33195 39.4431 5.7142 41.4433 5.71429 43.491V48.45C5.71429 49.2059 6.01531 49.9308 6.55112 50.4653C7.08694 50.9997 7.81367 51.3 8.57143 51.3H31.4286C32.1863 51.3 32.9131 50.9997 33.4489 50.4653C33.9847 49.9308 34.2857 49.2059 34.2857 48.45V43.756C34.286 41.6427 33.6425 39.5792 32.4403 37.839C31.2381 36.0988 29.5342 34.7641 27.5543 34.0119C27.193 33.8868 26.8605 33.6907 26.5766 33.4351C26.2927 33.1794 26.0631 32.8696 25.9015 32.5238C25.7399 32.1781 25.6495 31.8035 25.6357 31.4222C25.6219 31.041 25.685 30.6608 25.8212 30.3044C25.9574 29.9479 26.164 29.6223 26.4287 29.3469C26.6934 29.0716 27.0108 28.852 27.3621 28.7013C27.7135 28.5506 28.0916 28.4717 28.474 28.4695C28.8565 28.4672 29.2355 28.5415 29.5886 28.6881C32.6503 29.8514 35.2854 31.9152 37.1447 34.6061C39.004 37.297 39.9998 40.4879 40 43.756V48.45C40 50.7176 39.0969 52.8923 37.4895 54.4958C35.882 56.0992 33.7019 57 31.4286 57H8.57143C6.29814 57 4.11797 56.0992 2.51051 54.4958C0.903059 52.8923 0 50.7176 0 48.45V43.491C0.000393145 40.2994 0.963648 37.1819 2.76446 34.5438C4.56527 31.9058 7.12029 29.8694 10.0971 28.6995ZM20 0C23.031 0 25.9379 1.20107 28.0812 3.33898C30.2245 5.4769 31.4286 8.37653 31.4286 11.4V17.1C31.4286 20.1235 30.2245 23.0231 28.0812 25.161C25.9379 27.2989 23.031 28.5 20 28.5C16.969 28.5 14.0621 27.2989 11.9188 25.161C9.77551 23.0231 8.57143 20.1235 8.57143 17.1V11.4C8.57143 8.37653 9.77551 5.4769 11.9188 3.33898C14.0621 1.20107 16.969 0 20 0ZM20 5.7C18.4845 5.7 17.031 6.30053 15.9594 7.36949C14.8878 8.43845 14.2857 9.88827 14.2857 11.4V17.1C14.2857 18.6117 14.8878 20.0616 15.9594 21.1305C17.031 22.1995 18.4845 22.8 20 22.8C21.5155 22.8 22.969 22.1995 24.0406 21.1305C25.1122 20.0616 25.7143 18.6117 25.7143 17.1V11.4C25.7143 9.88827 25.1122 8.43845 24.0406 7.36949C22.969 6.30053 21.5155 5.7 20 5.7Z" fill="#005A7F"/>
</svg>
