<svg width="68" height="82" viewBox="0 0 68 82" fill="none" xmlns="http://www.w3.org/2000/svg">
<g id="lampada_folhas">
<path d="M28.3734 51.4894C26.6965 54.7625 29.6299 57.2873 32.7993 57.4578C32.2892 56.5673 31.7791 55.6768 31.2689 54.7862C27.646 63.09 41.3773 63.8479 46.0772 61.3136C50.8574 58.7368 55.5148 45.8762 46.7054 45.8714C47.277 46.6198 47.8438 47.3683 48.4154 48.1214C49.4262 45.374 48.2689 41.6509 44.8585 41.8877C42.596 42.044 42.5771 45.6014 44.8585 45.4404C45.6048 45.3883 45.1561 46.743 45.0002 47.1741C44.594 48.2778 45.6379 49.4241 46.7102 49.4241C50.5693 49.4288 46.1008 57.3583 44.2586 58.2536C42.7943 58.9641 32.9222 59.812 34.3298 56.5768C34.873 55.331 34.24 53.9809 32.7993 53.9052C32.497 53.8909 31.2595 53.6209 31.4342 53.2799C32.4734 51.2525 29.4173 49.4572 28.3734 51.4894Z" fill="#0A1A3C"/>
<path d="M29.9038 52.3896C28.6379 54.2417 31.1886 55.7338 32.7993 55.6865C31.9963 57.0602 32.5915 59.0591 34.0132 59.7696C36.7198 61.1244 41.6465 61.0344 44.457 60.106C47.7918 59.0023 50.1252 53.8249 49.9552 50.4048C49.8749 48.8133 48.2878 47.468 46.7101 47.6527C47.3619 46.2032 47.1163 43.2569 44.8632 43.669" fill="#0A1A3C"/>
<path d="M37.5702 66.5903C40.2909 66.7703 43.3943 66.5572 46.115 68.3903C47.7352 69.4846 48.9066 70.9198 49.5963 72.7341C50.3898 74.8325 49.9505 75.4909 47.7494 75.5099C44.9011 75.5335 42.1237 75.1451 39.4596 74.0604C38.5054 73.672 37.334 73.1462 36.8427 74.4962C36.3798 75.7751 37.5796 76.2346 38.5054 76.6609C41.1317 77.8736 44.0083 77.8546 46.7905 78.2999C47.3573 78.3899 48.2501 78.0678 48.3351 78.9441C48.4012 79.5978 47.7021 79.9815 47.1495 80.2894C42.9881 82.6152 38.7227 82.3736 34.4385 80.7299C30.5274 79.2283 27.3106 76.7367 24.7127 73.4777C22.8422 71.1283 23.3429 69.4324 26.1581 68.4472C29.7338 67.1966 33.4465 66.614 37.5702 66.5903Z" fill="#74EBF3"/>
<path d="M67.9614 55.7952C68.0842 58.5521 67.9189 61.2094 66.9836 63.7721C66.2798 65.7047 65.1414 67.2537 63.1245 67.9405C62.3404 68.2058 61.4382 68.7458 60.6871 67.9926C59.9692 67.2726 60.3187 66.3774 60.6305 65.5626C61.3909 63.5826 62.1987 61.6121 62.5104 59.4947C62.6663 58.4336 63.1906 57.0836 61.7263 56.6999C60.1959 56.302 60.1061 57.7136 59.8086 58.7794C59.2228 60.9016 58.6655 63.0379 57.9097 65.0984C57.2815 66.8132 56.299 66.8937 55.2173 65.4016C53.6302 63.2131 53.4838 60.6979 53.9703 58.1636C55.0898 52.3278 58.7977 47.9888 62.6427 43.8251C64.2345 42.1009 66.464 43.0672 66.9316 45.5636C67.5788 48.9504 68.1503 52.3704 67.9614 55.7952Z" fill="#74EBF3"/>
<path d="M31.4815 29.3918C31.5382 33.7402 28.3214 36.1797 24.9016 34.5644C21.5243 32.9681 18.6665 30.6186 17.1503 27.0186C15.9505 24.167 16.9708 21.0786 19.6018 19.4491C22.4076 17.7107 25.7235 18.0138 27.731 20.3586C30.0503 23.0633 31.0091 26.3697 31.4815 29.3918Z" fill="#FED94E"/>
<path d="M46.1483 41.0635C44.2163 34.5598 43.3141 28.0134 42.3364 21.325C41.5286 15.7781 39.8565 10.4965 35.9076 6.37539C29.0349 -0.796237 17.6559 -2.15098 9.43695 3.50484C0.93931 9.34541 -2.39551 20.5955 1.82261 30.0929C4.26468 35.5877 8.95987 39.164 13.8676 42.3425C16.253 43.8914 18.6431 45.4214 20.9388 47.1077C22.2519 48.0741 23.532 49.083 24.7884 50.1299C25.8985 51.0583 27.1549 52.6215 28.4492 53.2846C30.1449 54.1467 32.4783 52.8062 34.0277 52.0909C35.936 51.2099 37.7829 50.182 39.5637 49.0641C42.2088 47.3967 46.7812 44.7962 46.1483 41.0635C45.6381 38.0651 41.0846 39.3345 41.5948 42.3235C41.4294 41.3572 41.8498 41.5988 41.3019 41.8261C40.8626 42.0109 40.3525 42.7309 39.9746 43.034C38.8126 43.9672 37.5325 44.7725 36.2525 45.5351C34.0088 46.8804 31.5809 48.3346 29.0113 48.9504C29.7765 49.1541 30.5417 49.3578 31.3069 49.5615C28.2319 46.7714 24.9963 44.1662 21.6 41.7835C18.4589 39.5809 15.0721 37.7051 12.0443 35.3366C5.88485 30.5145 2.91847 22.8455 5.79983 15.2949C7.92542 9.72436 13.1591 5.47538 19.0919 4.76485C25.9599 3.94063 32.7004 7.95277 35.6053 14.1818C37.5561 18.3597 37.8207 23.1392 38.43 27.6439C39.1007 32.6224 40.1588 37.5156 41.59 42.3282C42.4592 45.2414 47.0174 44.0004 46.1483 41.0635Z" fill="#FED94E"/>
</g>
</svg>
