<svg width="36" height="36" viewBox="0 0 36 36" fill="none" xmlns="http://www.w3.org/2000/svg">
<g id="icon / heroicons / Outline / light-bulb">
<path id="Icon" d="M14.4952 25.5H21.5046M17.9999 4.5V6M27.5459 8.45406L26.4852 9.51472M31.5 17.9999H30M6 17.9999H4.5M9.51464 9.51472L8.45398 8.45406M12.6966 23.3033C9.76769 20.3744 9.76769 15.6257 12.6966 12.6967C15.6256 9.7678 20.3743 9.7678 23.3032 12.6967C26.2322 15.6257 26.2322 20.3744 23.3032 23.3033L22.4826 24.124C21.5332 25.0733 20.9999 26.3609 20.9999 27.7034V28.5C20.9999 30.1569 19.6568 31.5 17.9999 31.5C16.3431 31.5 14.9999 30.1569 14.9999 28.5V27.7034C14.9999 26.3609 14.4666 25.0733 13.5173 24.124L12.6966 23.3033Z" stroke="#21272A" stroke-width="2" stroke-linecap="round" stroke-linejoin="round"/>
</g>
</svg>
