<svg width="117" height="24" viewBox="0 0 117 24" fill="none" xmlns="http://www.w3.org/2000/svg">
<g id="logarodape">
<path d="M92.092 19.27C92.9387 18.59 93.602 18.0333 94.082 17.6C94.562 17.16 94.9653 16.7033 95.292 16.23C95.6253 15.75 95.792 15.28 95.792 14.82C95.792 14.3867 95.6853 14.0467 95.472 13.8C95.2653 13.5467 94.9286 13.42 94.462 13.42C94.0086 13.42 93.6553 13.5633 93.402 13.85C93.1553 14.13 93.022 14.5067 93.002 14.98H92.122C92.1487 14.2333 92.3753 13.6567 92.802 13.25C93.2287 12.8433 93.7787 12.64 94.452 12.64C95.1387 12.64 95.682 12.83 96.082 13.21C96.4887 13.59 96.692 14.1133 96.692 14.78C96.692 15.3333 96.5253 15.8733 96.192 16.4C95.8653 16.92 95.492 17.38 95.072 17.78C94.652 18.1733 94.1153 18.6333 93.462 19.16H96.902V19.92H92.092V19.27Z" fill="#0B1B3D"/>
<path d="M98.3144 16.31C98.3144 15.1633 98.501 14.27 98.8744 13.63C99.2477 12.9833 99.901 12.66 100.834 12.66C101.761 12.66 102.411 12.9833 102.784 13.63C103.158 14.27 103.344 15.1633 103.344 16.31C103.344 17.4767 103.158 18.3833 102.784 19.03C102.411 19.6767 101.761 20 100.834 20C99.901 20 99.2477 19.6767 98.8744 19.03C98.501 18.3833 98.3144 17.4767 98.3144 16.31ZM102.444 16.31C102.444 15.73 102.404 15.24 102.324 14.84C102.251 14.4333 102.094 14.1067 101.854 13.86C101.621 13.6133 101.281 13.49 100.834 13.49C100.381 13.49 100.034 13.6133 99.7944 13.86C99.561 14.1067 99.4044 14.4333 99.3244 14.84C99.251 15.24 99.2144 15.73 99.2144 16.31C99.2144 16.91 99.251 17.4133 99.3244 17.82C99.4044 18.2267 99.561 18.5533 99.7944 18.8C100.034 19.0467 100.381 19.17 100.834 19.17C101.281 19.17 101.621 19.0467 101.854 18.8C102.094 18.5533 102.251 18.2267 102.324 17.82C102.404 17.4133 102.444 16.91 102.444 16.31Z" fill="#0B1B3D"/>
<path d="M104.844 19.27C105.691 18.59 106.354 18.0333 106.834 17.6C107.314 17.16 107.717 16.7033 108.044 16.23C108.377 15.75 108.544 15.28 108.544 14.82C108.544 14.3867 108.437 14.0467 108.224 13.8C108.017 13.5467 107.681 13.42 107.214 13.42C106.761 13.42 106.407 13.5633 106.154 13.85C105.907 14.13 105.774 14.5067 105.754 14.98H104.874C104.901 14.2333 105.127 13.6567 105.554 13.25C105.981 12.8433 106.531 12.64 107.204 12.64C107.891 12.64 108.434 12.83 108.834 13.21C109.241 13.59 109.444 14.1133 109.444 14.78C109.444 15.3333 109.277 15.8733 108.944 16.4C108.617 16.92 108.244 17.38 107.824 17.78C107.404 18.1733 106.867 18.6333 106.214 19.16H109.654V19.92H104.844V19.27Z" fill="#0B1B3D"/>
<path d="M110.847 18.39V17.7L114.357 12.84H115.447V17.6H116.447V18.39H115.447V20H114.547V18.39H110.847ZM114.587 13.79L111.896 17.6H114.587V13.79Z" fill="#0B1B3D"/>
<path d="M1.02337 16.7844C1.12397 18.261 1.65126 19.6555 2.68433 20.7652C3.59321 21.7421 4.84761 22.4089 6.1582 22.7383C8.77591 23.3964 11.8425 22.8205 13.7775 20.9296C14.8425 19.8886 15.4316 18.537 15.5925 17.0958C15.8846 14.4733 15.188 11.7834 14.4734 9.27446C13.8712 7.16044 13.1899 4.95623 11.8841 3.13219C11.2361 2.22752 10.4771 1.43042 9.34067 1.13109C8.31245 0.86049 7.13091 1.00681 6.24284 1.58877C5.31731 2.19478 4.65404 3.19232 4.13368 4.12706C3.56615 5.14665 3.13322 6.23773 2.76343 7.33683C1.9607 9.72345 1.26481 12.2163 1.0532 14.7225C0.994924 15.4087 0.983823 16.0969 1.02337 16.7844C1.07332 17.655 2.4866 17.661 2.43595 16.7844C2.29164 14.2802 2.89664 11.8442 3.58489 9.44818C4.14062 7.51523 4.76574 5.53351 5.94936 3.85913C6.44474 3.15825 7.02545 2.52418 7.93433 2.3832C8.71902 2.26159 9.52522 2.53019 10.0816 3.11281C11.472 4.56804 12.1783 6.57983 12.7556 8.43794C13.4542 10.6869 14.1168 13.0087 14.2174 15.3653C14.2417 15.9292 14.2417 16.4991 14.182 17.061C14.1772 17.1065 14.1723 17.1519 14.1661 17.1967C14.1681 17.1826 14.1799 17.1031 14.1674 17.1833C14.1557 17.2601 14.1425 17.3363 14.1272 17.4132C14.0939 17.5829 14.053 17.7512 14.0051 17.9176C13.9642 18.0586 13.9177 18.1982 13.865 18.3359C13.8504 18.3746 13.7866 18.5316 13.8074 18.4835C13.8212 18.4508 13.7373 18.6325 13.7137 18.6793C13.5798 18.9459 13.423 19.2011 13.2447 19.4423C13.226 19.4677 13.1122 19.6127 13.1559 19.5599C13.1947 19.5125 13.0851 19.6421 13.0601 19.6708C12.9637 19.7804 12.8624 19.886 12.757 19.9882C12.6522 20.0897 12.5433 20.1873 12.4302 20.2808C12.3774 20.3243 12.324 20.3664 12.2706 20.4085C12.2088 20.4572 12.2893 20.3958 12.297 20.3904C12.2574 20.4191 12.2179 20.4479 12.1776 20.4753C11.9369 20.643 11.6836 20.794 11.4207 20.9283C11.2972 20.9911 11.1716 21.0479 11.0453 21.1053C10.8885 21.1768 11.0821 21.0946 10.9669 21.1387C10.8837 21.1708 10.7997 21.2022 10.7151 21.2316C10.4417 21.3272 10.1621 21.4067 9.87837 21.4701C9.73128 21.5029 9.58281 21.5323 9.43364 21.5563C9.36426 21.5677 9.29418 21.5784 9.22411 21.5884C9.37675 21.567 9.15959 21.5951 9.11102 21.5998C8.50741 21.6599 7.89548 21.6539 7.29395 21.579C7.43826 21.5971 7.26273 21.573 7.21208 21.565C7.1427 21.5537 7.07332 21.5423 7.00394 21.5289C6.84576 21.4995 6.68896 21.4655 6.53355 21.426C6.24284 21.3532 5.95838 21.2617 5.67878 21.1554C5.56292 21.1113 5.75787 21.1935 5.60038 21.1227C5.53725 21.0946 5.47411 21.0672 5.41097 21.0378C5.27707 20.975 5.14525 20.9082 5.0162 20.8374C4.88715 20.7666 4.76088 20.6911 4.63808 20.6116C4.58049 20.5742 4.5236 20.5361 4.4681 20.4973C4.44381 20.4806 4.42022 20.4639 4.39664 20.4465C4.24331 20.339 4.46047 20.4973 4.37513 20.4305C4.14409 20.2501 3.92485 20.0563 3.72365 19.8445C3.67647 19.7951 3.62998 19.7443 3.58489 19.6929C3.55922 19.6641 3.45029 19.5345 3.48845 19.582C3.53146 19.6347 3.41768 19.4891 3.39895 19.4637C3.34622 19.3915 3.29488 19.3187 3.24631 19.2445C3.08466 19 2.94173 18.7428 2.82517 18.4755C2.87929 18.5998 2.7884 18.3766 2.778 18.3506C2.75163 18.2817 2.72735 18.2123 2.70445 18.1428C2.6538 17.9898 2.6094 17.8348 2.57124 17.6784C2.53239 17.516 2.50047 17.353 2.4748 17.1887C2.46232 17.1085 2.47411 17.1867 2.47619 17.2007C2.46995 17.1552 2.46509 17.1091 2.46023 17.0637C2.45052 16.9702 2.4422 16.878 2.43595 16.7844C2.41097 16.4176 2.12998 16.1036 1.73035 16.1036C1.3668 16.1043 0.998393 16.4156 1.02337 16.7844Z" fill="#0B1B3D"/>
<path d="M8.29575 2.40778C9.44746 4.74162 9.90745 7.33537 10.2086 9.88301C10.5131 12.4554 10.7934 15.0718 10.5534 17.6602C10.4202 19.0914 10.0837 20.5012 9.50504 21.8275C9.35727 22.1662 9.66393 22.5758 9.99834 22.6647C10.4063 22.7722 10.7192 22.5297 10.8677 22.1896C11.9569 19.6927 12.1457 16.934 12.0166 14.256C11.9521 12.9157 11.8147 11.5781 11.6635 10.2445C11.506 8.85874 11.3186 7.473 11.021 6.10865C10.6908 4.59463 10.2058 3.12003 9.51545 1.72093C9.35171 1.38886 8.85842 1.30267 8.54899 1.47705C8.19653 1.67549 8.13132 2.07438 8.29575 2.40778Z" fill="#0B1B3D"/>
<path d="M7.1482 1.68418C5.90768 4.19708 5.39635 6.92178 5.06402 9.66519C4.74071 12.3338 4.44306 15.0558 4.70879 17.7411C4.85865 19.2551 5.18335 20.7464 5.79598 22.1522C5.94376 22.4909 6.26291 22.7335 6.66531 22.6272C6.99695 22.5397 7.30777 22.1315 7.15861 21.7901C6.11998 19.4088 5.93821 16.8324 6.05685 14.2787C6.17618 11.7037 6.43913 9.07789 6.97891 6.55163C7.28557 5.11578 7.71295 3.69731 8.36721 2.37037C8.53095 2.03897 8.46295 1.63607 8.11397 1.43964C7.80662 1.26659 7.31263 1.35078 7.1482 1.68418Z" fill="#0B1B3D"/>
<path d="M33.2627 19.5289C31.9165 19.5289 30.6994 19.2486 29.6115 18.688C28.5373 18.1144 27.6874 17.3061 27.0618 16.2631C26.4363 15.2071 26.1235 13.9556 26.1235 12.5084C26.1235 11.0483 26.4363 9.79674 27.0618 8.75378C27.6874 7.71081 28.5373 6.90904 29.6115 6.34844C30.6994 5.77481 31.9165 5.488 33.2627 5.488C34.269 5.488 35.1393 5.60533 35.8736 5.84C36.6079 6.07467 37.2878 6.36148 37.9133 6.70044C38.0493 6.76563 38.1513 6.85689 38.2193 6.97422C38.3009 7.07852 38.3485 7.22193 38.3621 7.40444C38.3757 7.61304 38.3077 7.79555 38.1581 7.952C38.0085 8.10844 37.8046 8.18667 37.5462 8.18667C37.4102 8.18667 37.2878 8.16059 37.179 8.10844C36.6351 7.83467 36.0776 7.61304 35.5064 7.44355C34.9353 7.27407 34.2486 7.18933 33.4463 7.18933C32.2496 7.18933 31.2433 7.424 30.4274 7.89333C29.6115 8.36267 28.9996 9.00148 28.5916 9.80978C28.1837 10.605 27.9797 11.5046 27.9797 12.5084C27.9797 13.5123 28.1837 14.4184 28.5916 15.2267C28.9996 16.0219 29.6115 16.6542 30.4274 17.1236C31.2433 17.5929 32.2496 17.8276 33.4463 17.8276C34.2486 17.8276 34.9353 17.7428 35.5064 17.5733C36.0776 17.4039 36.6351 17.1822 37.179 16.9084C37.2878 16.8563 37.4102 16.8302 37.5462 16.8302C37.8046 16.8302 38.0085 16.9084 38.1581 17.0649C38.3077 17.2213 38.3757 17.4039 38.3621 17.6124C38.3485 17.795 38.3009 17.9449 38.2193 18.0622C38.1513 18.1665 38.0493 18.2513 37.9133 18.3164C37.2878 18.6554 36.6079 18.9422 35.8736 19.1769C35.1393 19.4116 34.269 19.5289 33.2627 19.5289Z" fill="#0B1B3D"/>
<path d="M41.3519 19.4311C41.0663 19.4311 40.842 19.3464 40.6788 19.1769C40.5156 19.0074 40.434 18.7988 40.434 18.5511C40.434 18.4468 40.468 18.3164 40.536 18.16L45.7374 6.38755C45.8326 6.17896 45.9754 5.99644 46.1657 5.84C46.3697 5.67052 46.6213 5.58578 46.9204 5.58578H47.1244C47.4372 5.58578 47.6887 5.67052 47.8791 5.84C48.0695 5.99644 48.2123 6.17896 48.3075 6.38755L53.5089 18.16C53.5769 18.3164 53.6109 18.4468 53.6109 18.5511C53.6109 18.7988 53.5293 19.0074 53.3661 19.1769C53.2029 19.3464 52.9785 19.4311 52.693 19.4311C52.2714 19.4311 51.979 19.2486 51.8159 18.8836L50.49 15.8329H43.5548L42.229 18.8836C42.0658 19.2486 41.7734 19.4311 41.3519 19.4311ZM44.2688 14.2098H49.7761L47.0224 7.85422L44.2688 14.2098Z" fill="#0B1B3D"/>
<path d="M57.7589 19.4311C57.5005 19.4311 57.2829 19.3464 57.1061 19.1769C56.9293 19.0074 56.841 18.7988 56.841 18.5511V6.58311C56.841 6.33541 56.9293 6.12681 57.1061 5.95733C57.2829 5.77481 57.5005 5.68356 57.7589 5.68356H62.4095C63.443 5.68356 64.3065 5.81393 65 6.07467C65.7071 6.32237 66.2646 6.66133 66.6726 7.09155C67.0941 7.50874 67.3933 7.97155 67.5701 8.48C67.7605 8.98844 67.8557 9.50341 67.8557 10.0249C67.8557 10.5464 67.7605 11.0613 67.5701 11.5698C67.3933 12.0782 67.0941 12.5476 66.6726 12.9778C66.2646 13.395 65.7071 13.7339 65 13.9947C64.3065 14.2424 63.443 14.3662 62.4095 14.3662H58.6971V18.5511C58.6971 18.7988 58.602 19.0074 58.4116 19.1769C58.2348 19.3464 58.0172 19.4311 57.7589 19.4311ZM58.6971 12.6844H62.2259C63.2458 12.6844 64.0277 12.5541 64.5716 12.2933C65.1156 12.0196 65.4895 11.6806 65.6935 11.2764C65.8975 10.8593 65.9995 10.4421 65.9995 10.0249C65.9995 9.59467 65.8975 9.17748 65.6935 8.77333C65.4895 8.36918 65.1156 8.03674 64.5716 7.776C64.0277 7.50222 63.2458 7.36533 62.2259 7.36533H58.6971V12.6844Z" fill="#0B1B3D"/>
<path d="M71.6932 19.4311C71.4349 19.4311 71.2173 19.3464 71.0405 19.1769C70.8637 19.0074 70.7754 18.7988 70.7754 18.5511V6.48533C70.7754 6.23763 70.8637 6.02904 71.0405 5.85956C71.2173 5.67704 71.4349 5.58578 71.6932 5.58578C71.9516 5.58578 72.1692 5.67704 72.346 5.85956C72.5363 6.02904 72.6315 6.23763 72.6315 6.48533V18.5511C72.6315 18.7988 72.5363 19.0074 72.346 19.1769C72.1692 19.3464 71.9516 19.4311 71.6932 19.4311Z" fill="#0B1B3D"/>
<path d="M81.0439 19.4311C80.7855 19.4311 80.568 19.3464 80.3912 19.1769C80.2144 19.0074 80.126 18.7988 80.126 18.5511V7.34578H75.9649C75.7201 7.34578 75.5161 7.26756 75.353 7.11111C75.1898 6.95467 75.1082 6.75911 75.1082 6.52444C75.1082 6.28978 75.1898 6.09422 75.353 5.93778C75.5161 5.7683 75.7201 5.68356 75.9649 5.68356H86.1229C86.3677 5.68356 86.5716 5.7683 86.7348 5.93778C86.9116 6.09422 87 6.28978 87 6.52444C87 6.75911 86.9116 6.95467 86.7348 7.11111C86.5716 7.26756 86.3677 7.34578 86.1229 7.34578H81.9822V18.5511C81.9822 18.7988 81.887 19.0074 81.6966 19.1769C81.5198 19.3464 81.3023 19.4311 81.0439 19.4311Z" fill="#0B1B3D"/>
<path d="M1.02337 16.7844C1.12397 18.261 1.65126 19.6555 2.68433 20.7652C3.59321 21.7421 4.84761 22.4089 6.1582 22.7383C8.77591 23.3964 11.8425 22.8205 13.7775 20.9296C14.8425 19.8886 15.4316 18.537 15.5925 17.0958C15.8846 14.4733 15.188 11.7834 14.4734 9.27446C13.8712 7.16044 13.1899 4.95623 11.8841 3.13219C11.2361 2.22752 10.4771 1.43042 9.34067 1.13109C8.31245 0.86049 7.13091 1.00681 6.24284 1.58877C5.31731 2.19478 4.65404 3.19232 4.13368 4.12706C3.56615 5.14665 3.13322 6.23773 2.76343 7.33683C1.9607 9.72345 1.26481 12.2163 1.0532 14.7225C0.994924 15.4087 0.983823 16.0969 1.02337 16.7844ZM1.02337 16.7844C1.07332 17.655 2.4866 17.661 2.43595 16.7844M1.02337 16.7844C0.998393 16.4156 1.3668 16.1043 1.73035 16.1036C2.12998 16.1036 2.41097 16.4176 2.43595 16.7844M2.43595 16.7844C2.29164 14.2802 2.89664 11.8442 3.58489 9.44818C4.14062 7.51523 4.76574 5.53351 5.94936 3.85913C6.44474 3.15825 7.02545 2.52418 7.93433 2.3832C8.71902 2.26159 9.52522 2.53019 10.0816 3.11281C11.472 4.56804 12.1783 6.57983 12.7556 8.43794C13.4542 10.6869 14.1168 13.0087 14.2174 15.3653C14.2417 15.9292 14.2417 16.4991 14.182 17.061C14.1772 17.1065 14.1723 17.1519 14.1661 17.1967C14.1681 17.1826 14.1799 17.1031 14.1674 17.1833C14.1557 17.2601 14.1425 17.3363 14.1272 17.4132C14.0939 17.5829 14.053 17.7512 14.0051 17.9176C13.9642 18.0586 13.9177 18.1982 13.865 18.3359C13.8504 18.3746 13.7866 18.5316 13.8074 18.4835C13.8212 18.4508 13.7373 18.6325 13.7137 18.6793C13.5798 18.9459 13.423 19.2011 13.2447 19.4423C13.226 19.4677 13.1122 19.6127 13.1559 19.5599C13.1947 19.5125 13.0851 19.6421 13.0601 19.6708C12.9637 19.7804 12.8624 19.886 12.757 19.9882C12.6522 20.0897 12.5433 20.1873 12.4302 20.2808C12.3774 20.3243 12.324 20.3664 12.2706 20.4085C12.2088 20.4572 12.2893 20.3958 12.297 20.3904C12.2574 20.4191 12.2179 20.4479 12.1776 20.4753C11.9369 20.643 11.6836 20.794 11.4207 20.9283C11.2972 20.9911 11.1716 21.0479 11.0453 21.1053C10.8885 21.1768 11.0821 21.0946 10.9669 21.1387C10.8837 21.1708 10.7997 21.2022 10.7151 21.2316C10.4417 21.3272 10.1621 21.4067 9.87837 21.4701C9.73128 21.5029 9.58281 21.5323 9.43364 21.5563C9.36426 21.5677 9.29418 21.5784 9.22411 21.5884C9.37675 21.567 9.15959 21.5951 9.11102 21.5998C8.50741 21.6599 7.89548 21.6539 7.29395 21.579C7.43826 21.5971 7.26273 21.573 7.21208 21.565C7.1427 21.5537 7.07332 21.5423 7.00394 21.5289C6.84576 21.4995 6.68896 21.4655 6.53355 21.426C6.24284 21.3532 5.95838 21.2617 5.67878 21.1554C5.56292 21.1113 5.75787 21.1935 5.60038 21.1227C5.53725 21.0946 5.47411 21.0672 5.41097 21.0378C5.27707 20.975 5.14525 20.9082 5.0162 20.8374C4.88715 20.7666 4.76088 20.6911 4.63808 20.6116C4.58049 20.5742 4.5236 20.5361 4.4681 20.4973C4.44381 20.4806 4.42022 20.4639 4.39664 20.4465C4.24331 20.339 4.46047 20.4973 4.37513 20.4305C4.14409 20.2501 3.92485 20.0563 3.72365 19.8445C3.67647 19.7951 3.62998 19.7443 3.58489 19.6929C3.55922 19.6641 3.45029 19.5345 3.48845 19.582C3.53146 19.6347 3.41768 19.4891 3.39895 19.4637C3.34622 19.3915 3.29488 19.3187 3.24631 19.2445C3.08466 19 2.94173 18.7428 2.82517 18.4755C2.87929 18.5998 2.7884 18.3766 2.778 18.3506C2.75163 18.2817 2.72735 18.2123 2.70445 18.1428C2.6538 17.9898 2.6094 17.8348 2.57124 17.6784C2.53239 17.516 2.50047 17.353 2.4748 17.1887C2.46232 17.1085 2.47411 17.1867 2.47619 17.2007C2.46995 17.1552 2.46509 17.1091 2.46023 17.0637C2.45052 16.9702 2.4422 16.878 2.43595 16.7844ZM92.092 19.27C92.9387 18.59 93.602 18.0333 94.082 17.6C94.562 17.16 94.9653 16.7033 95.292 16.23C95.6253 15.75 95.792 15.28 95.792 14.82C95.792 14.3867 95.6853 14.0467 95.472 13.8C95.2653 13.5467 94.9286 13.42 94.462 13.42C94.0086 13.42 93.6553 13.5633 93.402 13.85C93.1553 14.13 93.022 14.5067 93.002 14.98H92.122C92.1487 14.2333 92.3753 13.6567 92.802 13.25C93.2287 12.8433 93.7787 12.64 94.452 12.64C95.1387 12.64 95.682 12.83 96.082 13.21C96.4887 13.59 96.692 14.1133 96.692 14.78C96.692 15.3333 96.5253 15.8733 96.192 16.4C95.8653 16.92 95.492 17.38 95.072 17.78C94.652 18.1733 94.1153 18.6333 93.462 19.16H96.902V19.92H92.092V19.27ZM98.3144 16.31C98.3144 15.1633 98.501 14.27 98.8744 13.63C99.2477 12.9833 99.901 12.66 100.834 12.66C101.761 12.66 102.411 12.9833 102.784 13.63C103.158 14.27 103.344 15.1633 103.344 16.31C103.344 17.4767 103.158 18.3833 102.784 19.03C102.411 19.6767 101.761 20 100.834 20C99.901 20 99.2477 19.6767 98.8744 19.03C98.501 18.3833 98.3144 17.4767 98.3144 16.31ZM102.444 16.31C102.444 15.73 102.404 15.24 102.324 14.84C102.251 14.4333 102.094 14.1067 101.854 13.86C101.621 13.6133 101.281 13.49 100.834 13.49C100.381 13.49 100.034 13.6133 99.7944 13.86C99.561 14.1067 99.4044 14.4333 99.3244 14.84C99.251 15.24 99.2144 15.73 99.2144 16.31C99.2144 16.91 99.251 17.4133 99.3244 17.82C99.4044 18.2267 99.561 18.5533 99.7944 18.8C100.034 19.0467 100.381 19.17 100.834 19.17C101.281 19.17 101.621 19.0467 101.854 18.8C102.094 18.5533 102.251 18.2267 102.324 17.82C102.404 17.4133 102.444 16.91 102.444 16.31ZM104.844 19.27C105.691 18.59 106.354 18.0333 106.834 17.6C107.314 17.16 107.717 16.7033 108.044 16.23C108.377 15.75 108.544 15.28 108.544 14.82C108.544 14.3867 108.437 14.0467 108.224 13.8C108.017 13.5467 107.681 13.42 107.214 13.42C106.761 13.42 106.407 13.5633 106.154 13.85C105.907 14.13 105.774 14.5067 105.754 14.98H104.874C104.901 14.2333 105.127 13.6567 105.554 13.25C105.981 12.8433 106.531 12.64 107.204 12.64C107.891 12.64 108.434 12.83 108.834 13.21C109.241 13.59 109.444 14.1133 109.444 14.78C109.444 15.3333 109.277 15.8733 108.944 16.4C108.617 16.92 108.244 17.38 107.824 17.78C107.404 18.1733 106.867 18.6333 106.214 19.16H109.654V19.92H104.844V19.27ZM110.847 18.39V17.7L114.357 12.84H115.447V17.6H116.447V18.39H115.447V20H114.547V18.39H110.847ZM114.587 13.79L111.896 17.6H114.587V13.79ZM8.29575 2.40778C9.44746 4.74162 9.90745 7.33537 10.2086 9.88301C10.5131 12.4554 10.7934 15.0718 10.5534 17.6602C10.4202 19.0914 10.0837 20.5012 9.50504 21.8275C9.35727 22.1662 9.66393 22.5758 9.99834 22.6647C10.4063 22.7722 10.7192 22.5297 10.8677 22.1896C11.9569 19.6927 12.1457 16.934 12.0166 14.256C11.9521 12.9157 11.8147 11.5781 11.6635 10.2445C11.506 8.85874 11.3186 7.473 11.021 6.10865C10.6908 4.59463 10.2058 3.12003 9.51545 1.72093C9.35171 1.38886 8.85842 1.30267 8.54899 1.47705C8.19653 1.67549 8.13132 2.07438 8.29575 2.40778ZM7.1482 1.68418C5.90768 4.19708 5.39635 6.92178 5.06402 9.66519C4.74071 12.3338 4.44306 15.0558 4.70879 17.7411C4.85865 19.2551 5.18335 20.7464 5.79598 22.1522C5.94376 22.4909 6.26291 22.7335 6.66531 22.6272C6.99695 22.5397 7.30777 22.1315 7.15861 21.7901C6.11998 19.4088 5.93821 16.8324 6.05685 14.2787C6.17618 11.7037 6.43913 9.07789 6.97891 6.55163C7.28557 5.11578 7.71295 3.69731 8.36721 2.37037C8.53095 2.03897 8.46295 1.63607 8.11397 1.43964C7.80662 1.26659 7.31263 1.35078 7.1482 1.68418ZM33.2627 19.5289C31.9165 19.5289 30.6994 19.2486 29.6115 18.688C28.5373 18.1144 27.6874 17.3061 27.0618 16.2631C26.4363 15.2071 26.1235 13.9556 26.1235 12.5084C26.1235 11.0483 26.4363 9.79674 27.0618 8.75378C27.6874 7.71081 28.5373 6.90904 29.6115 6.34844C30.6994 5.77481 31.9165 5.488 33.2627 5.488C34.269 5.488 35.1393 5.60533 35.8736 5.84C36.6079 6.07467 37.2878 6.36148 37.9133 6.70044C38.0493 6.76563 38.1513 6.85689 38.2193 6.97422C38.3009 7.07852 38.3485 7.22193 38.3621 7.40444C38.3757 7.61304 38.3077 7.79555 38.1581 7.952C38.0085 8.10844 37.8046 8.18667 37.5462 8.18667C37.4102 8.18667 37.2878 8.16059 37.179 8.10844C36.6351 7.83467 36.0776 7.61304 35.5064 7.44355C34.9353 7.27407 34.2486 7.18933 33.4463 7.18933C32.2496 7.18933 31.2433 7.424 30.4274 7.89333C29.6115 8.36267 28.9996 9.00148 28.5916 9.80978C28.1837 10.605 27.9797 11.5046 27.9797 12.5084C27.9797 13.5123 28.1837 14.4184 28.5916 15.2267C28.9996 16.0219 29.6115 16.6542 30.4274 17.1236C31.2433 17.5929 32.2496 17.8276 33.4463 17.8276C34.2486 17.8276 34.9353 17.7428 35.5064 17.5733C36.0776 17.4039 36.6351 17.1822 37.179 16.9084C37.2878 16.8563 37.4102 16.8302 37.5462 16.8302C37.8046 16.8302 38.0085 16.9084 38.1581 17.0649C38.3077 17.2213 38.3757 17.4039 38.3621 17.6124C38.3485 17.795 38.3009 17.9449 38.2193 18.0622C38.1513 18.1665 38.0493 18.2513 37.9133 18.3164C37.2878 18.6554 36.6079 18.9422 35.8736 19.1769C35.1393 19.4116 34.269 19.5289 33.2627 19.5289ZM41.3519 19.4311C41.0663 19.4311 40.842 19.3464 40.6788 19.1769C40.5156 19.0074 40.434 18.7988 40.434 18.5511C40.434 18.4468 40.468 18.3164 40.536 18.16L45.7374 6.38755C45.8326 6.17896 45.9754 5.99644 46.1657 5.84C46.3697 5.67052 46.6213 5.58578 46.9204 5.58578H47.1244C47.4372 5.58578 47.6887 5.67052 47.8791 5.84C48.0695 5.99644 48.2123 6.17896 48.3075 6.38755L53.5089 18.16C53.5769 18.3164 53.6109 18.4468 53.6109 18.5511C53.6109 18.7988 53.5293 19.0074 53.3661 19.1769C53.2029 19.3464 52.9785 19.4311 52.693 19.4311C52.2714 19.4311 51.979 19.2486 51.8159 18.8836L50.49 15.8329H43.5548L42.229 18.8836C42.0658 19.2486 41.7734 19.4311 41.3519 19.4311ZM44.2688 14.2098H49.7761L47.0224 7.85422L44.2688 14.2098ZM57.7589 19.4311C57.5005 19.4311 57.2829 19.3464 57.1061 19.1769C56.9293 19.0074 56.841 18.7988 56.841 18.5511V6.58311C56.841 6.33541 56.9293 6.12681 57.1061 5.95733C57.2829 5.77481 57.5005 5.68356 57.7589 5.68356H62.4095C63.443 5.68356 64.3065 5.81393 65 6.07467C65.7071 6.32237 66.2646 6.66133 66.6726 7.09155C67.0941 7.50874 67.3933 7.97155 67.5701 8.48C67.7605 8.98844 67.8557 9.50341 67.8557 10.0249C67.8557 10.5464 67.7605 11.0613 67.5701 11.5698C67.3933 12.0782 67.0941 12.5476 66.6726 12.9778C66.2646 13.395 65.7071 13.7339 65 13.9947C64.3065 14.2424 63.443 14.3662 62.4095 14.3662H58.6971V18.5511C58.6971 18.7988 58.602 19.0074 58.4116 19.1769C58.2348 19.3464 58.0172 19.4311 57.7589 19.4311ZM58.6971 12.6844H62.2259C63.2458 12.6844 64.0277 12.5541 64.5716 12.2933C65.1156 12.0196 65.4895 11.6806 65.6935 11.2764C65.8975 10.8593 65.9995 10.4421 65.9995 10.0249C65.9995 9.59467 65.8975 9.17748 65.6935 8.77333C65.4895 8.36918 65.1156 8.03674 64.5716 7.776C64.0277 7.50222 63.2458 7.36533 62.2259 7.36533H58.6971V12.6844ZM71.6932 19.4311C71.4349 19.4311 71.2173 19.3464 71.0405 19.1769C70.8637 19.0074 70.7754 18.7988 70.7754 18.5511V6.48533C70.7754 6.23763 70.8637 6.02904 71.0405 5.85956C71.2173 5.67704 71.4349 5.58578 71.6932 5.58578C71.9516 5.58578 72.1692 5.67704 72.346 5.85956C72.5363 6.02904 72.6315 6.23763 72.6315 6.48533V18.5511C72.6315 18.7988 72.5363 19.0074 72.346 19.1769C72.1692 19.3464 71.9516 19.4311 71.6932 19.4311ZM81.0439 19.4311C80.7855 19.4311 80.568 19.3464 80.3912 19.1769C80.2144 19.0074 80.126 18.7988 80.126 18.5511V7.34578H75.9649C75.7201 7.34578 75.5161 7.26756 75.353 7.11111C75.1898 6.95467 75.1082 6.75911 75.1082 6.52444C75.1082 6.28978 75.1898 6.09422 75.353 5.93778C75.5161 5.7683 75.7201 5.68356 75.9649 5.68356H86.1229C86.3677 5.68356 86.5716 5.7683 86.7348 5.93778C86.9116 6.09422 87 6.28978 87 6.52444C87 6.75911 86.9116 6.95467 86.7348 7.11111C86.5716 7.26756 86.3677 7.34578 86.1229 7.34578H81.9822V18.5511C81.9822 18.7988 81.887 19.0074 81.6966 19.1769C81.5198 19.3464 81.3023 19.4311 81.0439 19.4311Z" stroke="#0B1B3D" stroke-width="0.5"/>
</g>
</svg>
