<svg width="137" height="38" viewBox="0 0 137 38" fill="none" xmlns="http://www.w3.org/2000/svg">
<g id="Vector">
<path d="M1.03666 26.8291C1.19449 29.2453 2.02171 31.5271 3.6424 33.3431C5.06826 34.9416 7.03617 36.0327 9.09225 36.5717C13.199 37.6487 18.0099 36.7062 21.0456 33.6121C22.7163 31.9087 23.6404 29.6969 23.8929 27.3386C24.3512 23.0472 23.2584 18.6455 22.1373 14.54C21.1925 11.0807 20.1236 7.47383 18.0752 4.48904C17.0586 3.00867 15.8678 1.70432 14.0849 1.21451C12.4719 0.771711 10.6182 1.01115 9.22504 1.96344C7.77305 2.95509 6.7325 4.58744 5.91616 6.11701C5.02582 7.78543 4.34663 9.57084 3.76648 11.3694C2.50715 15.2747 1.41544 19.354 1.08347 23.455C0.992037 24.5779 0.974622 25.704 1.03666 26.8291C1.11503 28.2537 3.33219 28.2635 3.25274 26.8291C3.02634 22.7313 3.97547 18.745 5.0552 14.8243C5.92705 11.6613 6.90774 8.41847 8.76463 5.67858C9.54178 4.53168 10.4528 3.49411 11.8787 3.26341C13.1097 3.06443 14.3745 3.50395 15.2474 4.45733C17.4287 6.8386 18.5367 10.1306 19.4423 13.1712C20.5383 16.8513 21.5778 20.6507 21.7356 24.5068C21.7737 25.4296 21.7737 26.3622 21.6801 27.2817C21.6725 27.356 21.6649 27.4304 21.6551 27.5036C21.6584 27.4807 21.6769 27.3506 21.6573 27.4818C21.6388 27.6075 21.6181 27.7322 21.5941 27.8579C21.5419 28.1356 21.4777 28.4111 21.4026 28.6834C21.3383 28.914 21.2654 29.1425 21.1827 29.3678C21.1598 29.4312 21.0597 29.6881 21.0924 29.6094C21.1141 29.5558 20.9824 29.8532 20.9454 29.9297C20.7353 30.366 20.4894 30.7836 20.2096 31.1783C20.1802 31.2199 20.0017 31.4571 20.0703 31.3708C20.1313 31.2931 19.9593 31.5052 19.9201 31.5523C19.7688 31.7316 19.6099 31.9043 19.4445 32.0716C19.2801 32.2378 19.1092 32.3974 18.9318 32.5505C18.8491 32.6215 18.7653 32.6904 18.6815 32.7593C18.5846 32.8391 18.7108 32.7385 18.7228 32.7298C18.6608 32.7768 18.5987 32.8238 18.5356 32.8686C18.1579 33.143 17.7606 33.3901 17.3481 33.6099C17.1544 33.7127 16.9574 33.8056 16.7593 33.8996C16.5133 34.0166 16.8169 33.8821 16.6363 33.9543C16.5057 34.0068 16.3739 34.0582 16.2412 34.1063C15.8123 34.2626 15.3737 34.3927 14.9285 34.4966C14.6977 34.5502 14.4648 34.5983 14.2308 34.6376C14.122 34.6562 14.012 34.6737 13.9021 34.6901C14.1415 34.6551 13.8009 34.701 13.7247 34.7087C12.7777 34.8071 11.8177 34.7973 10.874 34.6748C11.1004 34.7043 10.8251 34.665 10.7456 34.6518C10.6368 34.6333 10.5279 34.6147 10.4191 34.5928C10.1709 34.5447 9.92491 34.4889 9.6811 34.4244C9.22504 34.3053 8.77878 34.1555 8.34013 33.9816C8.15836 33.9095 8.46421 34.044 8.21714 33.9281C8.11809 33.8821 8.01904 33.8373 7.91999 33.7892C7.70992 33.6864 7.50312 33.5771 7.30067 33.4612C7.09822 33.3453 6.90012 33.2218 6.70746 33.0917C6.61712 33.0304 6.52787 32.9681 6.44079 32.9047C6.4027 32.8774 6.36569 32.85 6.32868 32.8216C6.08814 32.6456 6.42882 32.9047 6.29494 32.7954C5.93249 32.5002 5.58854 32.1831 5.27289 31.8365C5.19888 31.7556 5.12595 31.6725 5.0552 31.5883C5.01493 31.5413 4.84404 31.3292 4.90391 31.4068C4.97139 31.4932 4.79289 31.2549 4.7635 31.2133C4.68078 31.0952 4.60023 30.9761 4.52404 30.8547C4.27043 30.4545 4.04621 30.0336 3.86336 29.5963C3.94825 29.7996 3.80567 29.4345 3.78934 29.3918C3.74798 29.2792 3.70988 29.1655 3.67397 29.0518C3.59451 28.8014 3.52485 28.5478 3.46498 28.2919C3.40403 28.0263 3.35396 27.7595 3.31369 27.4905C3.2941 27.3593 3.3126 27.4872 3.31587 27.5102C3.30607 27.4359 3.29845 27.3604 3.29083 27.2861C3.27559 27.133 3.26362 26.981 3.25383 26.828C3.21464 26.2277 2.77273 25.715 2.14579 25.715C1.57544 25.7161 0.997479 26.2255 1.03666 26.8291Z" fill="#0B1B3D"/>
<path d="M12.4457 3.30365C14.2525 7.12265 14.9741 11.367 15.4465 15.5358C15.9243 19.7452 16.3641 24.0266 15.9875 28.2622C15.7785 30.6041 15.2506 32.911 14.3428 35.0813C14.111 35.6356 14.5921 36.3058 15.1167 36.4512C15.7567 36.6273 16.2476 36.2304 16.4805 35.6739C18.1894 31.5881 18.4854 27.0738 18.283 22.6917C18.1818 20.4985 17.9663 18.3096 17.729 16.1273C17.4819 13.8598 17.188 11.5922 16.7211 9.3596C16.203 6.88212 15.4422 4.46914 14.3591 2.1797C14.1023 1.63632 13.3284 1.49528 12.8429 1.78064C12.29 2.10535 12.1877 2.75807 12.4457 3.30365Z" fill="#0B1B3D"/>
<path d="M10.6454 2.11957C8.69923 6.23159 7.89705 10.6902 7.37568 15.1794C6.86847 19.5462 6.40152 24.0004 6.8184 28.3945C7.0535 30.872 7.56289 33.3123 8.52399 35.6127C8.75583 36.167 9.25652 36.5639 9.88781 36.39C10.4081 36.2468 10.8957 35.5788 10.6617 35.0201C9.0323 31.1235 8.74712 26.9076 8.93325 22.7289C9.12046 18.5152 9.53298 14.2184 10.3798 10.0845C10.8609 7.73492 11.5314 5.41377 12.5578 3.24242C12.8146 2.70013 12.708 2.04085 12.1605 1.71941C11.6783 1.43624 10.9033 1.574 10.6454 2.11957Z" fill="#0B1B3D"/>
<path d="M51.6141 31.32C49.5021 31.32 47.5928 30.8613 45.8861 29.944C44.2008 29.0053 42.8675 27.6827 41.8861 25.976C40.9048 24.248 40.4141 22.2 40.4141 19.832C40.4141 17.4427 40.9048 15.3947 41.8861 13.688C42.8675 11.9813 44.2008 10.6693 45.8861 9.752C47.5928 8.81333 49.5021 8.344 51.6141 8.344C53.1928 8.344 54.5581 8.536 55.7101 8.92C56.8621 9.304 57.9288 9.77333 58.9101 10.328C59.1235 10.4347 59.2835 10.584 59.3901 10.776C59.5181 10.9467 59.5928 11.1813 59.6141 11.48C59.6355 11.8213 59.5288 12.12 59.2941 12.376C59.0595 12.632 58.7395 12.76 58.3341 12.76C58.1208 12.76 57.9288 12.7173 57.7581 12.632C56.9048 12.184 56.0301 11.8213 55.1341 11.544C54.2381 11.2667 53.1608 11.128 51.9021 11.128C50.0248 11.128 48.4461 11.512 47.1661 12.28C45.8861 13.048 44.9261 14.0933 44.2861 15.416C43.6461 16.7173 43.3261 18.1893 43.3261 19.832C43.3261 21.4747 43.6461 22.9573 44.2861 24.28C44.9261 25.5813 45.8861 26.616 47.1661 27.384C48.4461 28.152 50.0248 28.536 51.9021 28.536C53.1608 28.536 54.2381 28.3973 55.1341 28.12C56.0301 27.8427 56.9048 27.48 57.7581 27.032C57.9288 26.9467 58.1208 26.904 58.3341 26.904C58.7395 26.904 59.0595 27.032 59.2941 27.288C59.5288 27.544 59.6355 27.8427 59.6141 28.184C59.5928 28.4827 59.5181 28.728 59.3901 28.92C59.2835 29.0907 59.1235 29.2293 58.9101 29.336C57.9288 29.8907 56.8621 30.36 55.7101 30.744C54.5581 31.128 53.1928 31.32 51.6141 31.32Z" fill="#0B1B3D"/>
<path d="M64.3046 31.16C63.8566 31.16 63.5046 31.0213 63.2486 30.744C62.9926 30.4667 62.8646 30.1253 62.8646 29.72C62.8646 29.5493 62.9179 29.336 63.0246 29.08L71.1846 9.816C71.3339 9.47467 71.5579 9.176 71.8566 8.92C72.1766 8.64267 72.5712 8.504 73.0406 8.504H73.3606C73.8512 8.504 74.2459 8.64267 74.5446 8.92C74.8432 9.176 75.0672 9.47467 75.2166 9.816L83.3766 29.08C83.4832 29.336 83.5366 29.5493 83.5366 29.72C83.5366 30.1253 83.4086 30.4667 83.1526 30.744C82.8966 31.0213 82.5446 31.16 82.0966 31.16C81.4352 31.16 80.9766 30.8613 80.7206 30.264L78.6406 25.272H67.7606L65.6806 30.264C65.4246 30.8613 64.9659 31.16 64.3046 31.16ZM68.8806 22.616H77.5206L73.2006 12.216L68.8806 22.616Z" fill="#0B1B3D"/>
<path d="M90.044 31.16C89.6387 31.16 89.2973 31.0213 89.02 30.744C88.7427 30.4667 88.604 30.1253 88.604 29.72V10.136C88.604 9.73067 88.7427 9.38933 89.02 9.112C89.2973 8.81333 89.6387 8.664 90.044 8.664H97.34C98.9613 8.664 100.316 8.87733 101.404 9.304C102.513 9.70933 103.388 10.264 104.028 10.968C104.689 11.6507 105.159 12.408 105.436 13.24C105.735 14.072 105.884 14.9147 105.884 15.768C105.884 16.6213 105.735 17.464 105.436 18.296C105.159 19.128 104.689 19.896 104.028 20.6C103.388 21.2827 102.513 21.8373 101.404 22.264C100.316 22.6693 98.9613 22.872 97.34 22.872H91.516V29.72C91.516 30.1253 91.3667 30.4667 91.068 30.744C90.7907 31.0213 90.4493 31.16 90.044 31.16ZM91.516 20.12H97.052C98.652 20.12 99.8787 19.9067 100.732 19.48C101.585 19.032 102.172 18.4773 102.492 17.816C102.812 17.1333 102.972 16.4507 102.972 15.768C102.972 15.064 102.812 14.3813 102.492 13.72C102.172 13.0587 101.585 12.5147 100.732 12.088C99.8787 11.64 98.652 11.416 97.052 11.416H91.516V20.12Z" fill="#0B1B3D"/>
<path d="M111.904 31.16C111.499 31.16 111.158 31.0213 110.88 30.744C110.603 30.4667 110.464 30.1253 110.464 29.72V9.976C110.464 9.57067 110.603 9.22933 110.88 8.952C111.158 8.65333 111.499 8.504 111.904 8.504C112.31 8.504 112.651 8.65333 112.928 8.952C113.227 9.22933 113.376 9.57067 113.376 9.976V29.72C113.376 30.1253 113.227 30.4667 112.928 30.744C112.651 31.0213 112.31 31.16 111.904 31.16Z" fill="#0B1B3D"/>
<path d="M126.574 31.16C126.169 31.16 125.827 31.0213 125.55 30.744C125.273 30.4667 125.134 30.1253 125.134 29.72V11.384H118.606C118.222 11.384 117.902 11.256 117.646 11C117.39 10.744 117.262 10.424 117.262 10.04C117.262 9.656 117.39 9.336 117.646 9.08C117.902 8.80267 118.222 8.664 118.606 8.664H134.542C134.926 8.664 135.246 8.80267 135.502 9.08C135.779 9.336 135.918 9.656 135.918 10.04C135.918 10.424 135.779 10.744 135.502 11C135.246 11.256 134.926 11.384 134.542 11.384H128.046V29.72C128.046 30.1253 127.897 30.4667 127.598 30.744C127.321 31.0213 126.979 31.16 126.574 31.16Z" fill="#0B1B3D"/>
<path d="M1.03666 26.8291C1.19449 29.2453 2.02171 31.5271 3.6424 33.3431C5.06826 34.9416 7.03617 36.0327 9.09225 36.5717C13.199 37.6487 18.0099 36.7062 21.0456 33.6121C22.7163 31.9087 23.6404 29.6969 23.8929 27.3386C24.3512 23.0472 23.2584 18.6455 22.1373 14.54C21.1925 11.0807 20.1236 7.47383 18.0752 4.48904C17.0586 3.00867 15.8678 1.70432 14.0849 1.21451C12.4719 0.771711 10.6182 1.01115 9.22504 1.96344C7.77305 2.95509 6.7325 4.58744 5.91616 6.11701C5.02582 7.78543 4.34663 9.57084 3.76648 11.3694C2.50715 15.2747 1.41544 19.354 1.08347 23.455C0.992037 24.5779 0.974622 25.704 1.03666 26.8291ZM1.03666 26.8291C1.11503 28.2537 3.33219 28.2635 3.25274 26.8291C3.02634 22.7313 3.97547 18.745 5.0552 14.8243C5.92705 11.6613 6.90774 8.41847 8.76463 5.67858C9.54178 4.53168 10.4528 3.49411 11.8787 3.26341C13.1097 3.06443 14.3745 3.50395 15.2474 4.45733C17.4287 6.8386 18.5367 10.1306 19.4423 13.1712C20.5383 16.8513 21.5778 20.6507 21.7356 24.5068C21.7737 25.4296 21.7737 26.3622 21.6801 27.2817C21.6725 27.356 21.6649 27.4304 21.6551 27.5036C21.6584 27.4807 21.6769 27.3506 21.6573 27.4818C21.6388 27.6075 21.6181 27.7322 21.5941 27.8579C21.5419 28.1356 21.4777 28.4111 21.4026 28.6834C21.3383 28.914 21.2654 29.1425 21.1827 29.3678C21.1598 29.4312 21.0597 29.6881 21.0924 29.6094C21.1141 29.5558 20.9824 29.8532 20.9454 29.9297C20.7353 30.366 20.4894 30.7836 20.2096 31.1783C20.1802 31.2199 20.0017 31.4571 20.0703 31.3708C20.1313 31.2931 19.9593 31.5052 19.9201 31.5523C19.7688 31.7316 19.6099 31.9043 19.4445 32.0716C19.2801 32.2378 19.1092 32.3974 18.9318 32.5505C18.8491 32.6215 18.7653 32.6904 18.6815 32.7593C18.5846 32.8391 18.7108 32.7385 18.7228 32.7298C18.6608 32.7768 18.5987 32.8238 18.5356 32.8686C18.1579 33.143 17.7606 33.3901 17.3481 33.6099C17.1544 33.7127 16.9574 33.8056 16.7593 33.8996C16.5133 34.0166 16.8169 33.8821 16.6363 33.9543C16.5057 34.0068 16.3739 34.0582 16.2412 34.1063C15.8123 34.2626 15.3737 34.3927 14.9285 34.4966C14.6977 34.5502 14.4648 34.5983 14.2308 34.6376C14.122 34.6562 14.012 34.6737 13.9021 34.6901C14.1415 34.6551 13.8009 34.701 13.7247 34.7087C12.7777 34.8071 11.8177 34.7973 10.874 34.6748C11.1004 34.7043 10.8251 34.665 10.7456 34.6518C10.6368 34.6333 10.5279 34.6147 10.4191 34.5928C10.1709 34.5447 9.92491 34.4889 9.6811 34.4244C9.22504 34.3053 8.77878 34.1555 8.34013 33.9816C8.15836 33.9095 8.46421 34.044 8.21714 33.9281C8.11809 33.8821 8.01904 33.8373 7.91999 33.7892C7.70992 33.6864 7.50312 33.5771 7.30067 33.4612C7.09822 33.3453 6.90012 33.2218 6.70746 33.0917C6.61712 33.0304 6.52787 32.9681 6.44079 32.9047C6.4027 32.8774 6.36569 32.85 6.32868 32.8216C6.08814 32.6456 6.42882 32.9047 6.29494 32.7954C5.93249 32.5002 5.58854 32.1831 5.27289 31.8365C5.19888 31.7556 5.12595 31.6725 5.0552 31.5883C5.01493 31.5413 4.84404 31.3292 4.90391 31.4068C4.97139 31.4932 4.79289 31.2549 4.7635 31.2133C4.68078 31.0952 4.60023 30.9761 4.52404 30.8547C4.27043 30.4545 4.04621 30.0336 3.86336 29.5963C3.94825 29.7996 3.80567 29.4345 3.78934 29.3918C3.74798 29.2792 3.70988 29.1655 3.67397 29.0518C3.59451 28.8014 3.52485 28.5478 3.46498 28.2919C3.40403 28.0263 3.35396 27.7595 3.31369 27.4905C3.2941 27.3593 3.3126 27.4872 3.31587 27.5102C3.30607 27.4359 3.29845 27.3604 3.29083 27.2861C3.27559 27.133 3.26362 26.981 3.25383 26.828C3.21464 26.2277 2.77273 25.715 2.14579 25.715C1.57544 25.7161 0.997479 26.2255 1.03666 26.8291ZM12.4457 3.30365C14.2525 7.12265 14.9741 11.367 15.4465 15.5358C15.9243 19.7452 16.3641 24.0266 15.9875 28.2622C15.7785 30.6041 15.2506 32.911 14.3428 35.0813C14.111 35.6356 14.5921 36.3058 15.1167 36.4512C15.7567 36.6273 16.2476 36.2304 16.4805 35.6739C18.1894 31.5881 18.4854 27.0738 18.283 22.6917C18.1818 20.4985 17.9663 18.3096 17.729 16.1273C17.4819 13.8598 17.188 11.5922 16.7211 9.3596C16.203 6.88212 15.4422 4.46914 14.3591 2.1797C14.1023 1.63632 13.3284 1.49528 12.8429 1.78064C12.29 2.10535 12.1877 2.75807 12.4457 3.30365ZM10.6454 2.11957C8.69923 6.23159 7.89705 10.6902 7.37568 15.1794C6.86847 19.5462 6.40152 24.0004 6.8184 28.3945C7.0535 30.872 7.56289 33.3123 8.52399 35.6127C8.75583 36.167 9.25652 36.5639 9.88781 36.39C10.4081 36.2468 10.8957 35.5788 10.6617 35.0201C9.0323 31.1235 8.74712 26.9076 8.93325 22.7289C9.12046 18.5152 9.53298 14.2184 10.3798 10.0845C10.8609 7.73492 11.5314 5.41377 12.5578 3.24242C12.8146 2.70013 12.708 2.04085 12.1605 1.71941C11.6783 1.43624 10.9033 1.574 10.6454 2.11957ZM51.6141 31.32C49.5021 31.32 47.5928 30.8613 45.8861 29.944C44.2008 29.0053 42.8675 27.6827 41.8861 25.976C40.9048 24.248 40.4141 22.2 40.4141 19.832C40.4141 17.4427 40.9048 15.3947 41.8861 13.688C42.8675 11.9813 44.2008 10.6693 45.8861 9.752C47.5928 8.81333 49.5021 8.344 51.6141 8.344C53.1928 8.344 54.5581 8.536 55.7101 8.92C56.8621 9.304 57.9288 9.77333 58.9101 10.328C59.1235 10.4347 59.2835 10.584 59.3901 10.776C59.5181 10.9467 59.5928 11.1813 59.6141 11.48C59.6355 11.8213 59.5288 12.12 59.2941 12.376C59.0595 12.632 58.7395 12.76 58.3341 12.76C58.1208 12.76 57.9288 12.7173 57.7581 12.632C56.9048 12.184 56.0301 11.8213 55.1341 11.544C54.2381 11.2667 53.1608 11.128 51.9021 11.128C50.0248 11.128 48.4461 11.512 47.1661 12.28C45.8861 13.048 44.9261 14.0933 44.2861 15.416C43.6461 16.7173 43.3261 18.1893 43.3261 19.832C43.3261 21.4747 43.6461 22.9573 44.2861 24.28C44.9261 25.5813 45.8861 26.616 47.1661 27.384C48.4461 28.152 50.0248 28.536 51.9021 28.536C53.1608 28.536 54.2381 28.3973 55.1341 28.12C56.0301 27.8427 56.9048 27.48 57.7581 27.032C57.9288 26.9467 58.1208 26.904 58.3341 26.904C58.7395 26.904 59.0595 27.032 59.2941 27.288C59.5288 27.544 59.6355 27.8427 59.6141 28.184C59.5928 28.4827 59.5181 28.728 59.3901 28.92C59.2835 29.0907 59.1235 29.2293 58.9101 29.336C57.9288 29.8907 56.8621 30.36 55.7101 30.744C54.5581 31.128 53.1928 31.32 51.6141 31.32ZM64.3046 31.16C63.8566 31.16 63.5046 31.0213 63.2486 30.744C62.9926 30.4667 62.8646 30.1253 62.8646 29.72C62.8646 29.5493 62.9179 29.336 63.0246 29.08L71.1846 9.816C71.3339 9.47467 71.5579 9.176 71.8566 8.92C72.1766 8.64267 72.5712 8.504 73.0406 8.504H73.3606C73.8512 8.504 74.2459 8.64267 74.5446 8.92C74.8432 9.176 75.0672 9.47467 75.2166 9.816L83.3766 29.08C83.4832 29.336 83.5366 29.5493 83.5366 29.72C83.5366 30.1253 83.4086 30.4667 83.1526 30.744C82.8966 31.0213 82.5446 31.16 82.0966 31.16C81.4352 31.16 80.9766 30.8613 80.7206 30.264L78.6406 25.272H67.7606L65.6806 30.264C65.4246 30.8613 64.9659 31.16 64.3046 31.16ZM68.8806 22.616H77.5206L73.2006 12.216L68.8806 22.616ZM90.044 31.16C89.6387 31.16 89.2973 31.0213 89.02 30.744C88.7427 30.4667 88.604 30.1253 88.604 29.72V10.136C88.604 9.73067 88.7427 9.38933 89.02 9.112C89.2973 8.81333 89.6387 8.664 90.044 8.664H97.34C98.9613 8.664 100.316 8.87733 101.404 9.304C102.513 9.70933 103.388 10.264 104.028 10.968C104.689 11.6507 105.159 12.408 105.436 13.24C105.735 14.072 105.884 14.9147 105.884 15.768C105.884 16.6213 105.735 17.464 105.436 18.296C105.159 19.128 104.689 19.896 104.028 20.6C103.388 21.2827 102.513 21.8373 101.404 22.264C100.316 22.6693 98.9613 22.872 97.34 22.872H91.516V29.72C91.516 30.1253 91.3667 30.4667 91.068 30.744C90.7907 31.0213 90.4493 31.16 90.044 31.16ZM91.516 20.12H97.052C98.652 20.12 99.8787 19.9067 100.732 19.48C101.585 19.032 102.172 18.4773 102.492 17.816C102.812 17.1333 102.972 16.4507 102.972 15.768C102.972 15.064 102.812 14.3813 102.492 13.72C102.172 13.0587 101.585 12.5147 100.732 12.088C99.8787 11.64 98.652 11.416 97.052 11.416H91.516V20.12ZM111.904 31.16C111.499 31.16 111.158 31.0213 110.88 30.744C110.603 30.4667 110.464 30.1253 110.464 29.72V9.976C110.464 9.57067 110.603 9.22933 110.88 8.952C111.158 8.65333 111.499 8.504 111.904 8.504C112.31 8.504 112.651 8.65333 112.928 8.952C113.227 9.22933 113.376 9.57067 113.376 9.976V29.72C113.376 30.1253 113.227 30.4667 112.928 30.744C112.651 31.0213 112.31 31.16 111.904 31.16ZM126.574 31.16C126.169 31.16 125.827 31.0213 125.55 30.744C125.273 30.4667 125.134 30.1253 125.134 29.72V11.384H118.606C118.222 11.384 117.902 11.256 117.646 11C117.39 10.744 117.262 10.424 117.262 10.04C117.262 9.656 117.39 9.336 117.646 9.08C117.902 8.80267 118.222 8.664 118.606 8.664H134.542C134.926 8.664 135.246 8.80267 135.502 9.08C135.779 9.336 135.918 9.656 135.918 10.04C135.918 10.424 135.779 10.744 135.502 11C135.246 11.256 134.926 11.384 134.542 11.384H128.046V29.72C128.046 30.1253 127.897 30.4667 127.598 30.744C127.321 31.0213 126.979 31.16 126.574 31.16Z" stroke="#0B1B3D" stroke-width="0.75"/>
</g>
</svg>
