<svg width="213" height="213" viewBox="0 0 213 213" fill="none" xmlns="http://www.w3.org/2000/svg">
<g id="icon / tabler-icons / macro">
<path id="Vector" d="M106.5 186.375C92.3772 186.375 78.8329 180.765 68.8466 170.778C58.8603 160.792 53.25 147.248 53.25 133.125C67.3728 133.125 80.9171 138.735 90.9034 148.722C100.89 158.708 106.5 172.252 106.5 186.375ZM106.5 186.375C120.623 186.375 134.167 180.765 144.153 170.778C154.14 160.792 159.75 147.248 159.75 133.125C145.627 133.125 132.083 138.735 122.097 148.722C112.11 158.708 106.5 172.252 106.5 186.375ZM106.5 186.375V97.625M106.5 97.625C94.731 97.625 83.4441 92.9498 75.1221 84.6279C66.8002 76.3059 62.125 65.019 62.125 53.25V26.625L88.75 44.375L106.5 26.625L124.25 44.375L150.875 26.625V53.25C150.875 65.019 146.2 76.3059 137.878 84.6279C129.556 92.9498 118.269 97.625 106.5 97.625Z" stroke="white" stroke-opacity="0.2" stroke-width="5" stroke-linecap="round" stroke-linejoin="round"/>
</g>
</svg>
