<svg width="25" height="25" viewBox="0 0 25 25" fill="none" xmlns="http://www.w3.org/2000/svg">
<path id="mao" d="M7.90948 23.9342C7.84421 23.8635 7.78387 23.7875 7.71305 23.7223C5.55727 21.7548 3.40086 19.7891 1.24384 17.8222C1.16564 17.7509 1.08805 17.6797 1 17.5983C1.92796 16.5496 2.84791 15.5099 3.77894 14.4582C3.22044 14.0003 2.93288 13.4287 2.98214 12.7242C3.03202 12.0208 3.38916 11.4869 4.00616 11.1038C3.81589 10.695 3.71182 10.282 3.79434 9.83846C3.9218 9.1525 4.29803 8.64791 4.94089 8.33666C5.04372 8.28697 5.11761 8.25226 5.0936 8.1104C4.95197 7.28078 5.24877 6.61817 5.92734 6.10938C5.9452 6.09621 5.96244 6.08125 5.98399 6.06389C5.44212 5.08463 5.48399 4.15266 6.35838 3.40385C7.21059 2.6736 8.15209 2.75261 9.09791 3.37811C9.11946 2.39407 9.57081 1.63748 10.3017 1C11.0653 1.39925 11.8344 1.80148 12.6034 2.20432C13.2654 2.55089 13.9249 2.90165 14.5918 3.23805C14.6835 3.28414 14.8294 3.29192 14.9255 3.25541C16.1108 2.80588 17.2986 2.36055 18.4717 1.88169C19.4784 1.47047 20.5068 1.84398 21.0092 2.56047C21.6269 3.44096 21.5523 4.42441 20.8005 5.22111C20.7851 5.23727 20.7734 5.25702 20.7605 5.27438C21.5351 6.49606 21.5283 7.08924 20.7168 8.13374C21.0394 8.4833 21.2235 8.89931 21.2888 9.36919C21.3541 9.84146 21.2278 10.2694 20.9945 10.6717C22.0591 11.9005 21.992 13.0079 20.8208 13.9009C21.8467 14.9305 22.8744 15.9612 23.9132 17.0039C21.4938 19.2701 19.0505 21.5596 16.6318 23.8252C15.1724 22.4449 13.7217 21.0736 12.2746 19.7053C11.9717 19.9914 11.6367 20.2967 11.314 20.6145C10.1921 21.7189 9.07389 22.8274 7.95443 23.9342H7.90825H7.90948ZM12.5887 5.61437C13.298 6.21413 13.5844 6.92942 13.3411 7.78418C13.0948 8.64731 12.4563 9.1112 11.5696 9.26025C11.5018 10.2425 10.9969 10.8884 10.0647 11.2134C10.1964 12.5189 9.27894 13.4796 8.03448 13.558C7.95936 14.2751 7.61638 14.8419 6.9569 15.1974C6.2968 15.5536 5.62192 15.5398 4.94397 15.2022C4.26478 15.9702 3.59113 16.731 2.91071 17.4995C4.58621 19.0277 6.242 20.5379 7.93288 22.0798C8.00308 21.9936 8.05296 21.917 8.117 21.8541C10.3541 19.6466 12.5954 17.4433 14.827 15.2298C15.1016 14.9574 15.4021 14.7563 15.7623 14.6067C17.1373 14.035 18.5031 13.443 19.8738 12.8624C20.1219 12.7571 20.3091 12.6062 20.351 12.3351C20.4267 11.8485 19.9723 11.4839 19.4809 11.6485C18.8738 11.852 18.2734 12.0753 17.6533 12.2962C17.492 11.8718 17.3368 11.463 17.1773 11.0428C17.2796 11.0039 17.3639 10.9704 17.4495 10.9398C18.1108 10.7016 18.7734 10.4664 19.4335 10.2245C19.8676 10.0659 20.0185 9.73312 19.859 9.31053C19.7124 8.92265 19.3701 8.779 18.9452 8.93163C18.3842 9.13335 17.8245 9.33806 17.2635 9.54038C17.1878 9.56731 17.1102 9.58766 17.0222 9.6146C16.8584 9.18662 16.7044 8.78438 16.5468 8.37257C16.6626 8.32708 16.7531 8.28937 16.8461 8.25585C17.7081 7.9428 18.5708 7.63214 19.4323 7.31789C19.8676 7.15867 20.0443 6.81509 19.8904 6.43859C19.7438 6.08005 19.3639 5.94837 18.9483 6.11537C18.5086 6.29195 18.0708 6.47092 17.6318 6.64869C17.0751 6.87435 16.5179 7.09941 15.9452 7.33106C15.7642 6.90668 15.5918 6.50444 15.4175 6.09561C15.5037 6.0591 15.5665 6.03157 15.6293 6.00643C16.9458 5.4725 18.2623 4.93918 19.5776 4.40346C19.9187 4.26459 20.0684 4.02756 20.032 3.70733C19.9735 3.19914 19.5172 2.92619 19.0246 3.11594C17.6133 3.65944 16.2038 4.20893 14.7943 4.75662C14.069 5.03794 13.3436 5.31987 12.5881 5.61317L12.5887 5.61437ZM21.9569 16.9722C21.9329 16.9393 21.9218 16.9189 21.9058 16.9034C21.1133 16.1426 20.319 15.3836 19.5308 14.6192C19.4421 14.5336 19.3725 14.5378 19.2709 14.5815C18.2328 15.0275 17.1927 15.468 16.1552 15.9151C16.0671 15.9528 15.9846 16.0151 15.9163 16.0821C15.2826 16.7017 14.6546 17.3266 14.0203 17.9449C13.7722 18.1867 13.5105 18.4148 13.2303 18.6721C14.4046 19.7759 15.5345 20.8372 16.6804 21.9146C18.3972 20.3062 20.1718 18.6446 21.9569 16.9722ZM7.02833 4.94696C7.03571 5.19178 7.18103 5.37614 7.40702 5.52039C8.57328 6.26501 9.73645 7.01382 10.9015 7.75964C11.2783 8.00086 11.6964 7.9434 11.9193 7.62556C12.1515 7.29515 12.0499 6.88872 11.6687 6.64271C11.0745 6.25962 10.4791 5.87893 9.88362 5.49705C9.29495 5.11935 8.7069 4.74105 8.117 4.36575C7.87931 4.21431 7.62685 4.19636 7.37685 4.33103C7.14347 4.45673 7.02894 4.65905 7.02833 4.94696ZM10.1724 9.26683C10.1773 9.00167 10.04 8.81611 9.82143 8.67604C9.06589 8.1918 8.31219 7.70517 7.55357 7.22451C7.1835 6.98988 6.77771 7.05632 6.55788 7.37416C6.3282 7.70696 6.4181 8.09783 6.79064 8.34204C7.16564 8.58805 7.54557 8.82688 7.92365 9.0687C8.32081 9.3231 8.71121 9.58766 9.117 9.82769C9.59606 10.1114 10.1681 9.80016 10.1724 9.26683ZM7.98276 12.2262C8.30172 12.1998 8.56035 12.0179 8.65271 11.7341C8.75123 11.4325 8.65025 11.1487 8.35653 10.9578C7.65517 10.5023 6.95135 10.0504 6.24384 9.60323C5.89717 9.38415 5.48584 9.46196 5.26847 9.77262C5.04618 10.0911 5.13608 10.4933 5.49323 10.7255C6.18842 11.1769 6.88547 11.6252 7.58744 12.0663C7.70505 12.1406 7.85037 12.1741 7.98276 12.2262ZM5.09544 12.1902C4.76601 12.1866 4.51047 12.3513 4.40825 12.6062C4.30419 12.8648 4.35283 13.1737 4.5819 13.3401C4.93104 13.5933 5.29557 13.8297 5.67365 14.0404C5.9569 14.1984 6.32574 14.0865 6.51293 13.8345C6.70382 13.5789 6.71121 13.1881 6.45936 12.9971C6.08128 12.7098 5.66256 12.4734 5.25677 12.222C5.2032 12.189 5.12377 12.195 5.09544 12.1902ZM13.077 3.97848C12.2383 3.53973 11.447 3.12612 10.6552 2.7125C10.3184 3.35776 10.5154 4.21431 11.0831 4.63391C11.1287 4.66743 11.2137 4.69317 11.2617 4.67521C11.8534 4.45374 12.4421 4.22329 13.077 3.97848Z" fill="#0B1B3D" stroke="#0B1B3D" stroke-width="0.5" stroke-miterlimit="10"/>
</svg>
