<svg width="34" height="32" viewBox="0 0 34 32" fill="none" xmlns="http://www.w3.org/2000/svg">
<g id="icon / jam-icons / outline &#38; logos / tag">
<path id="Vector" d="M26.2281 3.16266L31.1128 7.75866C31.4949 8.11847 31.7597 8.57365 31.876 9.07048C31.9922 9.56732 31.955 10.0851 31.7687 10.5627L29.2711 16.9787C29.2003 17.1606 29.0881 17.3257 28.9425 17.4627L17.1516 28.56C16.8884 28.8077 16.5761 29.0043 16.2322 29.1383C15.8884 29.2724 15.5199 29.3414 15.1477 29.3414C14.7755 29.3414 14.407 29.2724 14.0632 29.1383C13.7193 29.0043 13.4069 28.8077 13.1438 28.56L4.12815 20.0747C3.59698 19.5746 3.29858 18.8964 3.29858 18.1893C3.29858 17.4822 3.59698 16.8041 4.12815 16.304L15.9332 5.19332C16.0791 5.05611 16.2551 4.95054 16.4489 4.88399L23.2517 2.54399C23.7589 2.36942 24.3085 2.33491 24.8359 2.44452C25.3632 2.55413 25.8463 2.80329 26.2281 3.16266ZM17.7154 7.28799L6.13131 18.1893L15.147 26.6747L26.7183 15.7853L29.1082 9.64533L24.225 5.04799L17.7154 7.28799ZM21.6594 12.0613C21.453 11.8777 21.2878 11.6569 21.1736 11.4122C21.0594 11.1674 20.9985 10.9036 20.9945 10.6363C20.9905 10.369 21.0434 10.1037 21.1502 9.85595C21.257 9.60824 21.4155 9.3832 21.6163 9.19413C21.8171 9.00506 22.0561 8.85579 22.3193 8.75515C22.5824 8.65451 22.8643 8.60454 23.1483 8.6082C23.4323 8.61185 23.7127 8.66905 23.9728 8.77643C24.2329 8.8838 24.4675 9.03916 24.6627 9.23333C25.0381 9.61246 25.2424 10.1139 25.2327 10.6321C25.223 11.1502 25 11.6445 24.6107 12.011C24.2213 12.3774 23.6961 12.5873 23.1455 12.5965C22.595 12.6056 22.0622 12.4133 21.6594 12.06V12.0613Z" fill="#0B1B3D" stroke="#0B1B3D" stroke-width="0.25"/>
</g>
</svg>
