<svg width="123" height="29" viewBox="0 0 123 29" fill="none" xmlns="http://www.w3.org/2000/svg">
<g id="Vector">
<path d="M38.1 21.2C36.7667 21.2 35.5667 20.9134 34.5 20.34C33.4467 19.7534 32.6133 18.92 32 17.84C31.4 16.7467 31.1 15.4734 31.1 14.02C31.1 12.5667 31.4 11.3 32 10.22C32.6133 9.12671 33.4467 8.29338 34.5 7.72004C35.5667 7.13338 36.7667 6.84004 38.1 6.84004C39.0067 6.84004 39.8133 6.94671 40.52 7.16004C41.24 7.37338 41.9533 7.68004 42.66 8.08004C42.9533 8.24004 43.1 8.49338 43.1 8.84004C43.1 9.04004 43.0267 9.22004 42.88 9.38004C42.7333 9.52671 42.54 9.60004 42.3 9.60004C42.1667 9.60004 42.0467 9.57338 41.94 9.52004C41.3533 9.21338 40.78 8.98004 40.22 8.82004C39.66 8.66004 39.0133 8.58004 38.28 8.58004C37.1333 8.58004 36.1533 8.82004 35.34 9.30004C34.54 9.76671 33.9333 10.4134 33.52 11.24C33.12 12.0534 32.92 12.98 32.92 14.02C32.92 15.06 33.12 15.9934 33.52 16.82C33.9333 17.6334 34.54 18.28 35.34 18.76C36.1533 19.2267 37.1333 19.46 38.28 19.46C39.0133 19.46 39.66 19.38 40.22 19.22C40.78 19.06 41.3533 18.8267 41.94 18.52C42.0467 18.4667 42.1667 18.44 42.3 18.44C42.54 18.44 42.7333 18.5134 42.88 18.66C43.0267 18.8067 43.1 18.9867 43.1 19.2C43.1 19.5467 42.9533 19.8 42.66 19.96C41.9533 20.36 41.24 20.6667 40.52 20.88C39.8133 21.0934 39.0067 21.2 38.1 21.2Z" fill="#0B1B3D"/>
<path d="M46.1667 21.1C45.9 21.1 45.68 21.0134 45.5067 20.84C45.3467 20.6667 45.2667 20.4534 45.2667 20.2C45.2667 20.0934 45.3 19.96 45.3667 19.8L50.4667 7.76004C50.5733 7.52004 50.72 7.32671 50.9067 7.18004C51.1067 7.02004 51.3467 6.94004 51.6267 6.94004H51.8267C52.1067 6.94004 52.34 7.02004 52.5267 7.18004C52.7267 7.32671 52.88 7.52004 52.9867 7.76004L58.0867 19.8C58.1533 19.96 58.1867 20.0934 58.1867 20.2C58.1867 20.4534 58.1 20.6667 57.9267 20.84C57.7667 21.0134 57.5533 21.1 57.2867 21.1C57.1 21.1 56.9267 21.0534 56.7667 20.96C56.62 20.8534 56.5067 20.7134 56.4267 20.54L55.1267 17.42H48.3267L47.0267 20.54C46.9467 20.7134 46.8267 20.8534 46.6667 20.96C46.52 21.0534 46.3533 21.1 46.1667 21.1ZM49.0267 15.76H54.4267L51.7267 9.26004L49.0267 15.76Z" fill="#0B1B3D"/>
<path d="M62.389 21.1C62.1357 21.1 61.9223 21.0134 61.749 20.84C61.5757 20.6667 61.489 20.4534 61.489 20.2V7.96004C61.489 7.70671 61.5757 7.49338 61.749 7.32004C61.9223 7.13338 62.1357 7.04004 62.389 7.04004H66.949C68.2157 7.04004 69.249 7.25338 70.049 7.68004C70.849 8.10671 71.4223 8.65338 71.769 9.32004C72.1157 9.98671 72.289 10.7067 72.289 11.48C72.289 12.2534 72.1157 12.9734 71.769 13.64C71.4223 14.3067 70.849 14.8534 70.049 15.28C69.249 15.7067 68.2157 15.92 66.949 15.92H63.309V20.2C63.309 20.4534 63.2157 20.6667 63.029 20.84C62.8557 21.0134 62.6423 21.1 62.389 21.1ZM66.769 14.2C68.129 14.2 69.0823 13.94 69.629 13.42C70.189 12.9 70.469 12.2534 70.469 11.48C70.469 10.7067 70.189 10.06 69.629 9.54004C69.0823 9.02004 68.129 8.76004 66.769 8.76004H63.309V14.2H66.769Z" fill="#0B1B3D"/>
<path d="M76.1869 21.1C75.9336 21.1 75.7203 21.0134 75.5469 20.84C75.3736 20.6667 75.2869 20.4534 75.2869 20.2V7.86004C75.2869 7.60671 75.3736 7.39338 75.5469 7.22004C75.7203 7.03338 75.9336 6.94004 76.1869 6.94004C76.4403 6.94004 76.6536 7.03338 76.8269 7.22004C77.0136 7.39338 77.1069 7.60671 77.1069 7.86004V20.2C77.1069 20.4534 77.0136 20.6667 76.8269 20.84C76.6536 21.0134 76.4403 21.1 76.1869 21.1Z" fill="#0B1B3D"/>
<path d="M85.4905 21.1C85.2372 21.1 85.0238 21.0134 84.8505 20.84C84.6772 20.6667 84.5905 20.4534 84.5905 20.2V8.74004H80.5105C80.2705 8.74004 80.0705 8.66004 79.9105 8.50004C79.7505 8.34004 79.6705 8.14004 79.6705 7.90004C79.6705 7.66004 79.7505 7.46004 79.9105 7.30004C80.0705 7.12671 80.2705 7.04004 80.5105 7.04004H90.4705C90.7105 7.04004 90.9105 7.12671 91.0705 7.30004C91.2438 7.46004 91.3305 7.66004 91.3305 7.90004C91.3305 8.14004 91.2438 8.34004 91.0705 8.50004C90.9105 8.66004 90.7105 8.74004 90.4705 8.74004H86.4105V20.2C86.4105 20.4534 86.3172 20.6667 86.1305 20.84C85.9572 21.0134 85.7438 21.1 85.4905 21.1Z" fill="#0B1B3D"/>
<path d="M98.0242 20.27C98.8709 19.59 99.5342 19.0334 100.014 18.6C100.494 18.16 100.898 17.7034 101.224 17.23C101.558 16.75 101.724 16.28 101.724 15.82C101.724 15.3867 101.618 15.0467 101.404 14.8C101.198 14.5467 100.861 14.42 100.394 14.42C99.9408 14.42 99.5875 14.5634 99.3342 14.85C99.0875 15.13 98.9542 15.5067 98.9342 15.98H98.0542C98.0809 15.2334 98.3075 14.6567 98.7342 14.25C99.1609 13.8434 99.7108 13.64 100.384 13.64C101.071 13.64 101.614 13.83 102.014 14.21C102.421 14.59 102.624 15.1134 102.624 15.78C102.624 16.3334 102.458 16.8734 102.124 17.4C101.798 17.92 101.424 18.38 101.004 18.78C100.584 19.1734 100.048 19.6334 99.3942 20.16H102.834V20.92H98.0242V20.27Z" fill="#0B1B3D"/>
<path d="M104.247 17.31C104.247 16.1634 104.433 15.27 104.807 14.63C105.18 13.9834 105.833 13.66 106.767 13.66C107.693 13.66 108.343 13.9834 108.717 14.63C109.09 15.27 109.277 16.1634 109.277 17.31C109.277 18.4767 109.09 19.3834 108.717 20.03C108.343 20.6767 107.693 21 106.767 21C105.833 21 105.18 20.6767 104.807 20.03C104.433 19.3834 104.247 18.4767 104.247 17.31ZM108.377 17.31C108.377 16.73 108.337 16.24 108.257 15.84C108.183 15.4334 108.027 15.1067 107.787 14.86C107.553 14.6134 107.213 14.49 106.767 14.49C106.313 14.49 105.967 14.6134 105.727 14.86C105.493 15.1067 105.337 15.4334 105.257 15.84C105.183 16.24 105.147 16.73 105.147 17.31C105.147 17.91 105.183 18.4134 105.257 18.82C105.337 19.2267 105.493 19.5534 105.727 19.8C105.967 20.0467 106.313 20.17 106.767 20.17C107.213 20.17 107.553 20.0467 107.787 19.8C108.027 19.5534 108.183 19.2267 108.257 18.82C108.337 18.4134 108.377 17.91 108.377 17.31Z" fill="#0B1B3D"/>
<path d="M110.776 20.27C111.623 19.59 112.286 19.0334 112.766 18.6C113.246 18.16 113.65 17.7034 113.976 17.23C114.31 16.75 114.476 16.28 114.476 15.82C114.476 15.3867 114.37 15.0467 114.156 14.8C113.95 14.5467 113.613 14.42 113.146 14.42C112.693 14.42 112.34 14.5634 112.086 14.85C111.84 15.13 111.706 15.5067 111.686 15.98H110.806C110.833 15.2334 111.06 14.6567 111.486 14.25C111.913 13.8434 112.463 13.64 113.136 13.64C113.823 13.64 114.366 13.83 114.766 14.21C115.173 14.59 115.376 15.1134 115.376 15.78C115.376 16.3334 115.21 16.8734 114.876 17.4C114.55 17.92 114.176 18.38 113.756 18.78C113.336 19.1734 112.8 19.6334 112.146 20.16H115.586V20.92H110.776V20.27Z" fill="#0B1B3D"/>
<path d="M116.779 19.39V18.7L120.289 13.84H121.379V18.6H122.379V19.39H121.379V21H120.479V19.39H116.779ZM120.519 14.79L117.829 18.6H120.519V14.79Z" fill="#0B1B3D"/>
<path d="M14.0297 7.38645C14.3374 7.38645 14.5878 7.38645 14.8381 7.38645C16.3364 7.37913 17.8335 7.37058 19.3318 7.36569C19.9216 7.36447 20.222 7.57329 20.2721 8.15703C20.3392 8.93371 20.3392 9.71772 20.3368 10.4993C20.3319 12.049 20.2391 13.5999 19.6053 15.0348C18.2414 18.1281 15.8358 19.9049 12.5155 20.4642C12.3971 20.4838 12.2786 20.5009 12.1333 20.5241V23.444C12.7915 23.444 13.4497 23.4403 14.1079 23.4452C14.5646 23.4489 14.8296 23.7285 14.8161 24.1718C14.8027 24.5736 14.556 24.8251 14.1445 24.83C13.4851 24.8373 12.8257 24.8325 12.1297 24.8325C12.1199 24.9717 12.1052 25.0877 12.1052 25.2025C12.1028 26.0402 12.1052 26.878 12.1028 27.7157C12.1028 27.9832 12.0271 28.2201 11.7621 28.3446C11.4935 28.4704 11.2248 28.4631 10.9757 28.2982C10.7107 28.1224 10.6961 27.8378 10.6948 27.5606C10.69 26.7888 10.6936 26.017 10.6936 25.2452C10.6936 25.1243 10.6936 25.0047 10.6936 24.8312C10.392 24.8312 10.1099 24.8312 9.82908 24.8312C9.35528 24.8312 8.88149 24.8312 8.4077 24.8312C7.86186 24.83 7.59809 24.5785 7.5871 24.0277C7.57245 23.2449 7.57123 22.4633 7.56268 21.6806C7.55658 21.1188 7.54803 20.5571 7.53948 19.9953C7.53704 19.8378 7.52605 19.7095 7.31602 19.6558C4.50745 18.9475 2.72584 17.1108 1.82343 14.4352C0.708549 11.1404 0.891717 7.89691 2.74171 4.89887C4.42685 2.16706 6.99364 0.788327 10.1783 0.585608C10.9635 0.535539 11.7633 0.603926 12.5497 0.688189C13.4228 0.782221 13.9198 1.32321 13.9809 2.233C14.0358 3.06708 14.0224 3.90604 14.0297 4.74256C14.037 5.6206 14.0309 6.49864 14.0309 7.38767L14.0297 7.38645ZM18.9154 8.77739C18.7322 8.77739 18.6016 8.77739 18.4709 8.77739C16.8175 8.78472 15.1641 8.79327 13.5107 8.79815C12.9393 8.8006 12.6694 8.54292 12.6645 7.98362C12.6511 6.51818 12.6413 5.05152 12.6303 3.58609C12.6279 3.2124 12.6193 2.83872 12.6206 2.46503C12.6218 2.20003 12.5168 2.05349 12.2347 2.0486C11.4654 2.03395 10.6887 1.92892 9.93043 2.0083C7.24641 2.28796 5.118 3.52991 3.74425 5.89049C2.57686 7.89569 2.33141 10.0816 2.70508 12.3457C2.96273 13.9064 3.53299 15.3352 4.61368 16.5234C5.3952 17.3832 6.34156 17.9742 7.44057 18.2502C7.44057 16.9838 7.454 15.7284 7.43691 14.4743C7.41737 13.065 7.35509 11.6545 7.34044 10.2453C7.32945 9.09124 7.84232 8.33166 8.79113 8.11795C9.17944 8.03002 9.60927 7.99949 10 8.06299C11.6082 8.32555 12.9002 9.14864 13.8478 10.4639C14.7319 11.6912 14.8552 13.0381 14.1958 14.401C13.9113 14.9896 13.5327 15.5465 13.1175 16.0533C12.0088 17.4064 10.5947 18.4102 9.15136 19.3688C8.98162 19.4812 8.91568 19.5935 8.92057 19.7914C8.94132 20.783 8.95109 21.7746 8.9633 22.7662C8.96575 22.9824 8.9633 23.1997 8.9633 23.4195H10.7095C10.7095 23.2767 10.7095 23.157 10.7095 23.0373C10.7205 21.9907 10.7303 20.943 10.7437 19.8964C10.7498 19.4116 11.0233 19.1527 11.4996 19.1258C11.9379 19.1014 12.3861 19.088 12.8098 18.9866C15.6831 18.2966 17.7053 16.6346 18.5698 13.7489C19.051 12.1442 18.9496 10.4797 18.913 8.77617L18.9154 8.77739ZM8.86073 17.8692C8.99872 17.7874 9.0671 17.7569 9.12449 17.7117C9.79855 17.1792 10.4897 16.6675 11.1369 16.1046C11.8903 15.4512 12.5412 14.7039 12.9527 13.7782C13.2421 13.1285 13.3642 12.441 13.0284 11.7974C12.3336 10.4626 11.1955 9.67619 9.72406 9.42096C9.0036 9.2964 8.71297 9.61758 8.73007 10.3466C8.77525 12.2407 8.82043 14.1336 8.85829 16.0276C8.8705 16.6187 8.86073 17.2098 8.86073 17.868V17.8692Z" fill="#0B1B3D"/>
<path d="M19.2708 5.53634C19.2659 5.92834 19.051 6.20067 18.7396 6.2715C18.4196 6.34355 18.1058 6.19212 17.9532 5.87461C17.582 5.10526 17.1497 4.37742 16.4695 3.83888C16.1178 3.56044 15.732 3.32231 15.351 3.0854C14.9639 2.84482 14.8283 2.44915 15.031 2.07791C15.2118 1.74819 15.6111 1.64927 16.0104 1.85321C17.4806 2.60058 18.5234 3.75339 19.1938 5.25058C19.2427 5.35804 19.2561 5.48138 19.2708 5.53756V5.53634Z" fill="#0B1B3D"/>
<path d="M38.1 21.2C36.7667 21.2 35.5667 20.9134 34.5 20.34C33.4467 19.7534 32.6133 18.92 32 17.84C31.4 16.7467 31.1 15.4734 31.1 14.02C31.1 12.5667 31.4 11.3 32 10.22C32.6133 9.12671 33.4467 8.29338 34.5 7.72004C35.5667 7.13338 36.7667 6.84004 38.1 6.84004C39.0067 6.84004 39.8133 6.94671 40.52 7.16004C41.24 7.37338 41.9533 7.68004 42.66 8.08004C42.9533 8.24004 43.1 8.49338 43.1 8.84004C43.1 9.04004 43.0267 9.22004 42.88 9.38004C42.7333 9.52671 42.54 9.60004 42.3 9.60004C42.1667 9.60004 42.0467 9.57338 41.94 9.52004C41.3533 9.21338 40.78 8.98004 40.22 8.82004C39.66 8.66004 39.0133 8.58004 38.28 8.58004C37.1333 8.58004 36.1533 8.82004 35.34 9.30004C34.54 9.76671 33.9333 10.4134 33.52 11.24C33.12 12.0534 32.92 12.98 32.92 14.02C32.92 15.06 33.12 15.9934 33.52 16.82C33.9333 17.6334 34.54 18.28 35.34 18.76C36.1533 19.2267 37.1333 19.46 38.28 19.46C39.0133 19.46 39.66 19.38 40.22 19.22C40.78 19.06 41.3533 18.8267 41.94 18.52C42.0467 18.4667 42.1667 18.44 42.3 18.44C42.54 18.44 42.7333 18.5134 42.88 18.66C43.0267 18.8067 43.1 18.9867 43.1 19.2C43.1 19.5467 42.9533 19.8 42.66 19.96C41.9533 20.36 41.24 20.6667 40.52 20.88C39.8133 21.0934 39.0067 21.2 38.1 21.2Z" stroke="#0B1B3D" stroke-width="0.5"/>
<path d="M46.1667 21.1C45.9 21.1 45.68 21.0134 45.5067 20.84C45.3467 20.6667 45.2667 20.4534 45.2667 20.2C45.2667 20.0934 45.3 19.96 45.3667 19.8L50.4667 7.76004C50.5733 7.52004 50.72 7.32671 50.9067 7.18004C51.1067 7.02004 51.3467 6.94004 51.6267 6.94004H51.8267C52.1067 6.94004 52.34 7.02004 52.5267 7.18004C52.7267 7.32671 52.88 7.52004 52.9867 7.76004L58.0867 19.8C58.1533 19.96 58.1867 20.0934 58.1867 20.2C58.1867 20.4534 58.1 20.6667 57.9267 20.84C57.7667 21.0134 57.5533 21.1 57.2867 21.1C57.1 21.1 56.9267 21.0534 56.7667 20.96C56.62 20.8534 56.5067 20.7134 56.4267 20.54L55.1267 17.42H48.3267L47.0267 20.54C46.9467 20.7134 46.8267 20.8534 46.6667 20.96C46.52 21.0534 46.3533 21.1 46.1667 21.1ZM49.0267 15.76H54.4267L51.7267 9.26004L49.0267 15.76Z" stroke="#0B1B3D" stroke-width="0.5"/>
<path d="M62.389 21.1C62.1357 21.1 61.9223 21.0134 61.749 20.84C61.5757 20.6667 61.489 20.4534 61.489 20.2V7.96004C61.489 7.70671 61.5757 7.49338 61.749 7.32004C61.9223 7.13338 62.1357 7.04004 62.389 7.04004H66.949C68.2157 7.04004 69.249 7.25338 70.049 7.68004C70.849 8.10671 71.4223 8.65338 71.769 9.32004C72.1157 9.98671 72.289 10.7067 72.289 11.48C72.289 12.2534 72.1157 12.9734 71.769 13.64C71.4223 14.3067 70.849 14.8534 70.049 15.28C69.249 15.7067 68.2157 15.92 66.949 15.92H63.309V20.2C63.309 20.4534 63.2157 20.6667 63.029 20.84C62.8557 21.0134 62.6423 21.1 62.389 21.1ZM66.769 14.2C68.129 14.2 69.0823 13.94 69.629 13.42C70.189 12.9 70.469 12.2534 70.469 11.48C70.469 10.7067 70.189 10.06 69.629 9.54004C69.0823 9.02004 68.129 8.76004 66.769 8.76004H63.309V14.2H66.769Z" stroke="#0B1B3D" stroke-width="0.5"/>
<path d="M76.1869 21.1C75.9336 21.1 75.7203 21.0134 75.5469 20.84C75.3736 20.6667 75.2869 20.4534 75.2869 20.2V7.86004C75.2869 7.60671 75.3736 7.39338 75.5469 7.22004C75.7203 7.03338 75.9336 6.94004 76.1869 6.94004C76.4403 6.94004 76.6536 7.03338 76.8269 7.22004C77.0136 7.39338 77.1069 7.60671 77.1069 7.86004V20.2C77.1069 20.4534 77.0136 20.6667 76.8269 20.84C76.6536 21.0134 76.4403 21.1 76.1869 21.1Z" stroke="#0B1B3D" stroke-width="0.5"/>
<path d="M85.4905 21.1C85.2372 21.1 85.0238 21.0134 84.8505 20.84C84.6772 20.6667 84.5905 20.4534 84.5905 20.2V8.74004H80.5105C80.2705 8.74004 80.0705 8.66004 79.9105 8.50004C79.7505 8.34004 79.6705 8.14004 79.6705 7.90004C79.6705 7.66004 79.7505 7.46004 79.9105 7.30004C80.0705 7.12671 80.2705 7.04004 80.5105 7.04004H90.4705C90.7105 7.04004 90.9105 7.12671 91.0705 7.30004C91.2438 7.46004 91.3305 7.66004 91.3305 7.90004C91.3305 8.14004 91.2438 8.34004 91.0705 8.50004C90.9105 8.66004 90.7105 8.74004 90.4705 8.74004H86.4105V20.2C86.4105 20.4534 86.3172 20.6667 86.1305 20.84C85.9572 21.0134 85.7438 21.1 85.4905 21.1Z" stroke="#0B1B3D" stroke-width="0.5"/>
<path d="M98.0242 20.27C98.8709 19.59 99.5342 19.0334 100.014 18.6C100.494 18.16 100.898 17.7034 101.224 17.23C101.558 16.75 101.724 16.28 101.724 15.82C101.724 15.3867 101.618 15.0467 101.404 14.8C101.198 14.5467 100.861 14.42 100.394 14.42C99.9408 14.42 99.5875 14.5634 99.3342 14.85C99.0875 15.13 98.9542 15.5067 98.9342 15.98H98.0542C98.0809 15.2334 98.3075 14.6567 98.7342 14.25C99.1609 13.8434 99.7108 13.64 100.384 13.64C101.071 13.64 101.614 13.83 102.014 14.21C102.421 14.59 102.624 15.1134 102.624 15.78C102.624 16.3334 102.458 16.8734 102.124 17.4C101.798 17.92 101.424 18.38 101.004 18.78C100.584 19.1734 100.048 19.6334 99.3942 20.16H102.834V20.92H98.0242V20.27Z" stroke="#0B1B3D" stroke-width="0.5"/>
<path d="M104.247 17.31C104.247 16.1634 104.433 15.27 104.807 14.63C105.18 13.9834 105.833 13.66 106.767 13.66C107.693 13.66 108.343 13.9834 108.717 14.63C109.09 15.27 109.277 16.1634 109.277 17.31C109.277 18.4767 109.09 19.3834 108.717 20.03C108.343 20.6767 107.693 21 106.767 21C105.833 21 105.18 20.6767 104.807 20.03C104.433 19.3834 104.247 18.4767 104.247 17.31ZM108.377 17.31C108.377 16.73 108.337 16.24 108.257 15.84C108.183 15.4334 108.027 15.1067 107.787 14.86C107.553 14.6134 107.213 14.49 106.767 14.49C106.313 14.49 105.967 14.6134 105.727 14.86C105.493 15.1067 105.337 15.4334 105.257 15.84C105.183 16.24 105.147 16.73 105.147 17.31C105.147 17.91 105.183 18.4134 105.257 18.82C105.337 19.2267 105.493 19.5534 105.727 19.8C105.967 20.0467 106.313 20.17 106.767 20.17C107.213 20.17 107.553 20.0467 107.787 19.8C108.027 19.5534 108.183 19.2267 108.257 18.82C108.337 18.4134 108.377 17.91 108.377 17.31Z" stroke="#0B1B3D" stroke-width="0.5"/>
<path d="M110.776 20.27C111.623 19.59 112.286 19.0334 112.766 18.6C113.246 18.16 113.65 17.7034 113.976 17.23C114.31 16.75 114.476 16.28 114.476 15.82C114.476 15.3867 114.37 15.0467 114.156 14.8C113.95 14.5467 113.613 14.42 113.146 14.42C112.693 14.42 112.34 14.5634 112.086 14.85C111.84 15.13 111.706 15.5067 111.686 15.98H110.806C110.833 15.2334 111.06 14.6567 111.486 14.25C111.913 13.8434 112.463 13.64 113.136 13.64C113.823 13.64 114.366 13.83 114.766 14.21C115.173 14.59 115.376 15.1134 115.376 15.78C115.376 16.3334 115.21 16.8734 114.876 17.4C114.55 17.92 114.176 18.38 113.756 18.78C113.336 19.1734 112.8 19.6334 112.146 20.16H115.586V20.92H110.776V20.27Z" stroke="#0B1B3D" stroke-width="0.5"/>
<path d="M116.779 19.39V18.7L120.289 13.84H121.379V18.6H122.379V19.39H121.379V21H120.479V19.39H116.779ZM120.519 14.79L117.829 18.6H120.519V14.79Z" stroke="#0B1B3D" stroke-width="0.5"/>
<path d="M14.0297 7.38645C14.3374 7.38645 14.5878 7.38645 14.8381 7.38645C16.3364 7.37913 17.8335 7.37058 19.3318 7.36569C19.9216 7.36447 20.222 7.57329 20.2721 8.15703C20.3392 8.93371 20.3392 9.71772 20.3368 10.4993C20.3319 12.049 20.2391 13.5999 19.6053 15.0348C18.2414 18.1281 15.8358 19.9049 12.5155 20.4642C12.3971 20.4838 12.2786 20.5009 12.1333 20.5241V23.444C12.7915 23.444 13.4497 23.4403 14.1079 23.4452C14.5646 23.4489 14.8296 23.7285 14.8161 24.1718C14.8027 24.5736 14.556 24.8251 14.1445 24.83C13.4851 24.8373 12.8257 24.8325 12.1297 24.8325C12.1199 24.9717 12.1052 25.0877 12.1052 25.2025C12.1028 26.0402 12.1052 26.878 12.1028 27.7157C12.1028 27.9832 12.0271 28.2201 11.7621 28.3446C11.4935 28.4704 11.2248 28.4631 10.9757 28.2982C10.7107 28.1224 10.6961 27.8378 10.6948 27.5606C10.69 26.7888 10.6936 26.017 10.6936 25.2452C10.6936 25.1243 10.6936 25.0047 10.6936 24.8312C10.392 24.8312 10.1099 24.8312 9.82908 24.8312C9.35528 24.8312 8.88149 24.8312 8.4077 24.8312C7.86186 24.83 7.59809 24.5785 7.5871 24.0277C7.57245 23.2449 7.57123 22.4633 7.56268 21.6806C7.55658 21.1188 7.54803 20.5571 7.53948 19.9953C7.53704 19.8378 7.52605 19.7095 7.31602 19.6558C4.50745 18.9475 2.72584 17.1108 1.82343 14.4352C0.708549 11.1404 0.891717 7.89691 2.74171 4.89887C4.42685 2.16706 6.99364 0.788327 10.1783 0.585608C10.9635 0.535539 11.7633 0.603926 12.5497 0.688189C13.4228 0.782221 13.9198 1.32321 13.9809 2.233C14.0358 3.06708 14.0224 3.90604 14.0297 4.74256C14.037 5.6206 14.0309 6.49864 14.0309 7.38767L14.0297 7.38645ZM18.9154 8.77739C18.7322 8.77739 18.6016 8.77739 18.4709 8.77739C16.8175 8.78472 15.1641 8.79327 13.5107 8.79815C12.9393 8.8006 12.6694 8.54292 12.6645 7.98362C12.6511 6.51818 12.6413 5.05152 12.6303 3.58609C12.6279 3.2124 12.6193 2.83872 12.6206 2.46503C12.6218 2.20003 12.5168 2.05349 12.2347 2.0486C11.4654 2.03395 10.6887 1.92892 9.93043 2.0083C7.24641 2.28796 5.118 3.52991 3.74425 5.89049C2.57686 7.89569 2.33141 10.0816 2.70508 12.3457C2.96273 13.9064 3.53299 15.3352 4.61368 16.5234C5.3952 17.3832 6.34156 17.9742 7.44057 18.2502C7.44057 16.9838 7.454 15.7284 7.43691 14.4743C7.41737 13.065 7.35509 11.6545 7.34044 10.2453C7.32945 9.09124 7.84232 8.33166 8.79113 8.11795C9.17944 8.03002 9.60927 7.99949 10 8.06299C11.6082 8.32555 12.9002 9.14864 13.8478 10.4639C14.7319 11.6912 14.8552 13.0381 14.1958 14.401C13.9113 14.9896 13.5327 15.5465 13.1175 16.0533C12.0088 17.4064 10.5947 18.4102 9.15136 19.3688C8.98162 19.4812 8.91568 19.5935 8.92057 19.7914C8.94132 20.783 8.95109 21.7746 8.9633 22.7662C8.96575 22.9824 8.9633 23.1997 8.9633 23.4195H10.7095C10.7095 23.2767 10.7095 23.157 10.7095 23.0373C10.7205 21.9907 10.7303 20.943 10.7437 19.8964C10.7498 19.4116 11.0233 19.1527 11.4996 19.1258C11.9379 19.1014 12.3861 19.088 12.8098 18.9866C15.6831 18.2966 17.7053 16.6346 18.5698 13.7489C19.051 12.1442 18.9496 10.4797 18.913 8.77617L18.9154 8.77739ZM8.86073 17.8692C8.99872 17.7874 9.0671 17.7569 9.12449 17.7117C9.79855 17.1792 10.4897 16.6675 11.1369 16.1046C11.8903 15.4512 12.5412 14.7039 12.9527 13.7782C13.2421 13.1285 13.3642 12.441 13.0284 11.7974C12.3336 10.4626 11.1955 9.67619 9.72406 9.42096C9.0036 9.2964 8.71297 9.61758 8.73007 10.3466C8.77525 12.2407 8.82043 14.1336 8.85829 16.0276C8.8705 16.6187 8.86073 17.2098 8.86073 17.868V17.8692Z" stroke="#0B1B3D" stroke-width="0.5"/>
<path d="M19.2708 5.53634C19.2659 5.92834 19.051 6.20067 18.7396 6.2715C18.4196 6.34355 18.1058 6.19212 17.9532 5.87461C17.582 5.10526 17.1497 4.37742 16.4695 3.83888C16.1178 3.56044 15.732 3.32231 15.351 3.0854C14.9639 2.84482 14.8283 2.44915 15.031 2.07791C15.2118 1.74819 15.6111 1.64927 16.0104 1.85321C17.4806 2.60058 18.5234 3.75339 19.1938 5.25058C19.2427 5.35804 19.2561 5.48138 19.2708 5.53756V5.53634Z" stroke="#0B1B3D" stroke-width="0.5"/>
</g>
</svg>
